<svg xmlns="http://www.w3.org/2000/svg" xmlns:xlink="http://www.w3.org/1999/xlink" xmlns:xodm="http://www.corel.com/coreldraw/odm/2003" xml:space="preserve" version="1.1" style="shape-rendering:geometricPrecision;text-rendering:geometricPrecision;image-rendering:optimizeQuality;" viewBox="0 0 39370.08 39370.08" x="0px" y="0px" fill-rule="evenodd" clip-rule="evenodd"><defs><style type="text/css">
   
    .fil0 {fill:black;fill-rule:nonzero}
   
  </style></defs><g><path class="fil0" d="M35022.57 10313.03c-292.94,507.02 -519.07,1043.9 -677.33,1606.32 634.17,1144.36 1107.64,2303.36 1430.26,3466.67 338.85,1221.87 510.57,2447.96 526.72,3666.37 11.18,843.73 -52.37,1681.6 -186.77,2509.77 -135.52,835.11 -341.85,1655.01 -612.31,2456.09 69.46,1423.91 -54.43,2857.27 -539.74,4293.6 -1207.29,3573.04 -4633.52,6548.21 -8019.91,8015.21 -1970.74,853.74 -4090.17,1293 -6233.28,1320.26 -438.57,117.94 -883.17,218.15 -1333.34,299.9 -2640.03,479.41 -5292.86,268.13 -7809.5,-691.88 -1997.28,-761.9 -3944.46,-2004.49 -5785.97,-3790.93 -1462.53,-1418.79 -2600.89,-2900.7 -3449.81,-4414.05 -902.39,-1608.66 -1478.16,-3252.85 -1768.91,-4894.69 -333.22,-1881.66 -293.17,-3807.8 88.63,-5677.17 -22.09,-1008.98 51.12,-2000.83 211.09,-2967.26 165.73,-1001.25 424.35,-1975.71 766.36,-2914.17 560.32,-1537.5 1348.86,-2986.44 2325.8,-4298.51 3233.63,-4342.91 8391.93,-7025.29 13839.62,-6941.07 1894.33,29.28 3839.93,389.75 5778.28,1136.28 203.62,77.45 409.31,161.28 614.24,249.5 1609.46,-235.76 3123.18,-668.11 4534.26,-1496.3 681.32,-401.15 1504.06,1003.79 841.38,1393.97 -966.01,566.97 -1990.26,987.38 -3069.32,1282.99 2566.44,1544.89 5010.6,3802.91 6749.58,6249.46 114.72,-237.95 240.34,-470.17 369.89,-700.34 -141.43,-206.99 -186.2,-423.74 -67.46,-617.28l1361.77 -2289.27c121.89,-204.91 260.02,-258.28 400.06,-312.37 78.55,-30.35 158.2,-61.11 217.48,-158.33 22.29,-36.55 34.85,-86.24 36.67,-142.42 1.7,-52.53 -6.29,-109.17 -24.7,-165.59 -120.42,-282.17 -180.51,-580.35 -168.18,-875.93 11.99,-287.48 91.72,-571.54 250,-835.33l12.96 -21.06c258.9,-418.38 664.2,-690.53 1113.04,-793.01 446.29,-101.89 935.66,-35.42 1365.85,222.71 2.96,1.77 10.43,6.37 22.68,13.95 434.66,268.98 724.57,685.69 841.91,1141.96 117.72,457.76 61.81,955.44 -195.63,1384.5 -159.12,265.19 -376.28,473.12 -626.22,618.02 -258.5,149.86 -552.42,232.26 -853.63,240.76 -1.73,0.05 -3.46,0.07 -5.18,0.07 -1.36,0.09 -2.73,0.17 -4.1,0.23 -44.46,2.03 -88.73,17.8 -128.37,42.63 -43.79,27.43 -81.17,65.81 -106.84,109.3 -58.26,98.69 -48.54,185.88 -38.94,271.87 16.73,149.96 33.24,297.91 -89.26,500.41l-1389.63 2300.85 -0.56 -0.33c-98.59,167.76 -287.26,225.08 -513.65,203.64zm854 -4728.56c5.77,9.54 10.82,19.7 15.02,30.44 45.45,115.52 65.28,236.85 61.58,350.78 -4.02,123.74 -36.05,240.31 -93.58,334.66 -128.39,210.53 -270.79,265.54 -411.26,319.81 -75.94,29.33 -150.86,58.28 -203.21,146.29l-1357.49 2282.04c-115.29,189.22 409.83,550.76 546.54,632.89 221.7,133.2 702.4,367.3 814.21,145.22l1341.23 -2220.71c53.87,-89.06 44.71,-171.15 35.43,-254.35 -16.79,-150.49 -33.81,-303.06 91.22,-514.86 56.21,-95.21 139.3,-180 237.57,-241.56 94.92,-59.46 204.61,-97.38 319.07,-102.6 3.9,-0.17 7.78,-0.21 11.63,-0.15 1.26,-0.06 2.52,-0.12 3.79,-0.15 235.31,-6.65 465.17,-71.15 667.54,-188.47 194.26,-112.62 362.9,-273.99 486.28,-479.61 201.55,-335.89 245.09,-726.37 152.57,-1086.14 -92.91,-361.27 -322.96,-691.53 -668.13,-905.13l-18.07 -10.88c-340.22,-204.14 -726.51,-256.88 -1078.26,-176.57 -349.19,79.72 -664.35,291.19 -865.44,616.15l-9.89 16.45c-123.26,205.43 -185.33,426.18 -194.63,649.24 -9.18,219.96 32.2,443.09 116.28,657.23zm1769.06 -1275.12c207.24,128.24 345.49,327.01 401.47,544.69 56.25,218.72 29.48,456.59 -93.63,661.76l-6.23 10.08c-124,200.39 -318.08,330.72 -532.98,379.79 -213.11,48.65 -446.73,16.96 -652.01,-106.22l-10.81 -6.68c-207.24,-128.24 -345.49,-327.01 -401.47,-544.69 -56.25,-218.72 -29.48,-456.59 93.63,-661.76l6.23 -10.07c124,-200.39 318.08,-330.73 532.98,-379.8 213.11,-48.65 446.73,-16.96 652.02,106.23l10.8 6.67zm135.57 612.5c-38.88,-151.17 -135.23,-289.42 -279.82,-378.9l-7.57 -4.52c-142.3,-85.39 -303.77,-107.48 -450.71,-73.93 -145.15,33.14 -276.13,121 -359.66,255.99l-4.08 6.84c-83.97,139.95 -102.08,302.79 -63.48,452.92 38.88,151.18 135.23,289.43 279.82,378.9l7.58 4.53c142.3,85.38 303.76,107.47 450.7,73.92 145.15,-33.14 276.12,-121 359.66,-255.98l4.08 -6.85c83.97,-139.95 102.08,-302.79 63.48,-452.92zm-3888.75 4853.42c-523.6,944.43 -766.49,1809.69 -980.76,2866.17 -142.57,980.74 -122.37,1979.54 -12.99,2992.58 130.33,1207.09 387.64,2437.19 647.94,3681.09 154.92,740.33 310.89,1485.89 437.9,2227.45 77.44,452.15 144.81,906 195.8,1361.42 212.32,-692.29 359.3,-1404.64 430.97,-2125.38 24.49,-246.29 30.34,-205.04 -13.85,-426.61 -78.09,-391.44 -159.52,-782 -241.28,-1172.75 -265.18,-1267.24 -529.85,-2530.15 -645.96,-3821.43 -116.5,-1295.48 -99.69,-2435.02 290.91,-3679.57 160.59,-511.65 372.44,-1009.85 626.55,-1465.14 -260.26,-100.76 -522.63,-256.83 -735.22,-437.81zm-825.86 831.44c-1786.49,-2584.71 -4333.94,-4923.89 -7047.86,-6493.85 -721.72,-417.5 -1467.62,-790.69 -2235.87,-1112.26 -2005.83,-839.59 -4032.18,-1220.63 -5993.3,-1250.94 -5303.81,-81.99 -10330.79,2525.56 -13491.13,6744.5 -967.44,1291.47 -1747.87,2720.06 -2300.58,4236.71 -333.88,916.16 -586.28,1866.98 -747.9,2843.43 -69.5,419.88 -122.25,844.43 -157.53,1272.91 384.64,-1202.32 896.4,-2358.78 1511.22,-3460.83 160.34,-287.41 147.87,-293.47 266.42,-601.29 522.57,-1356.7 1237.26,-2635.19 2110.39,-3797.08 3401.46,-4526.38 8944.06,-7027.24 14610.69,-6271.02 955.4,127.5 1907.51,345.76 2846.38,655.9 758.75,250.64 1509.15,554.41 2105.08,863.45 3195.93,1561.82 6291.37,4348.36 8210.03,7356.78 111.6,-416.82 216.56,-722.23 313.95,-986.39zm970.37 3437.51c658.37,1587.93 1024.22,3264.01 1047.01,4984.56 5.37,405.98 -8.24,811.67 -40.62,1216.38 -110.01,2425.98 -1167.85,4970.56 -2476.02,6999.7 -1741.2,2700.83 -4430.21,5232.18 -7129.05,6944.76 -1167.45,740.81 -2369.22,1347.99 -3590.56,1804.58 487.17,-44.54 998.78,-116.61 1512.42,-216.72 795.86,-155.11 1645.46,-327.79 2341.65,-758.76 823.18,-509.59 1630.01,-1083.02 2415.73,-1714.87 2096.88,-1686.25 4165.83,-3842.44 5504.59,-6178.61 304.39,-531.17 603.16,-1112.57 869.87,-1689.93 598.65,-1295.89 1006.45,-2522.12 1235.92,-3936.2 131.03,-807.42 193.01,-1622.73 182.15,-2442.1 -15.68,-1183.9 -182.89,-2376.53 -512.87,-3566.41 -280.2,-1010.4 -678.34,-2019.24 -1201.32,-3019.53 -108.5,513.1 -166.79,1049.11 -158.89,1573.16zm-103.09 13332.3c-758.93,2797.36 -2897.59,5070.04 -5278.13,6627.57 -740.34,484.39 -1510.25,894.96 -2302.28,1233.05 -869.36,419.72 -1898.14,727.28 -2919.5,926.35 -1173.04,228.63 -2220.43,292.78 -3402.38,261.7 -2201.83,-57.99 -4382.34,-584.24 -6393.33,-1476.51 -2014.69,-893.91 -3936.9,-2185.34 -5658.21,-3855.17 -1992.01,-1932.43 -3446.2,-3942.17 -4435.24,-5959.99 -838.25,-1710.19 -1341.92,-3425.61 -1555.28,-5104.37 -168.26,1354.67 -71.65,2685.46 186.01,4024.77 1132.41,2909.28 3010.94,5457.72 5241.48,7621.55 1789.17,1739.8 3873.49,3175.25 6163.06,4142.83 1868.64,789.68 3750.37,1199.49 5791.15,1361.91 2558.35,203.61 4917.68,-130.33 7416.93,-1213.02 3279.98,-1420.9 6632.97,-4316.95 7803.06,-7779.91 362.04,-1071.47 515.28,-2143.94 534.89,-3213.52 -87.56,206.74 -180.41,416.26 -277.34,626.1 -71.37,154.5 -915.61,1776.37 -914.91,1776.67zm-70.51 -3589.85c-44.28,-725.11 -142.08,-1452.27 -266.38,-2177.99 -127.83,-746.35 -281.85,-1482.57 -434.82,-2213.61 -262.37,-1253.82 -521.74,-2493.74 -654.09,-3719.54 -130.49,-1208.55 -137.11,-2400.68 98.39,-3573.48 -1941.24,-3190.41 -5243.55,-6148.67 -8626.3,-7697.1 -1631.05,202.04 -3274.93,238.59 -4911.83,370.63 -4840.47,390.45 -8905.69,2242.78 -12280.88,5725.34 -886.25,914.44 -1677.71,1912.01 -2351.57,2972.33 -659.59,1037.88 -1205.2,2133.83 -1615.31,3268.59 -225.99,625.31 -408.16,1252.52 -549.82,1901.29 71.24,2056.56 583.45,4190.66 1626.24,6318.13 969.29,1977.52 2397.58,3950.17 4356.81,5850.8 1686.42,1635.98 3569.44,2901.13 5542.86,3776.74 2095.41,929.73 4363.87,1449.79 6658.62,1449.65 1625.37,-460.45 3228.05,-1201.1 4772.31,-2181.03 2652.12,-1682.94 5297.89,-4170.48 7009.1,-6824.8 656.76,-1018.72 1212.24,-2106.24 1626.68,-3245.96zm-18748.38 13102.9c-3285.67,-385.81 -6131.61,-1994.1 -8496.8,-4288.56 -2400.51,-2328.71 -4192.94,-5273.72 -4842.06,-8498.5 -283.48,-1408.35 -341.52,-2764.34 -171.31,-4121.28 133.64,-1065.4 470.66,-2332.81 846.65,-3373.17 420.73,-1164.16 978.77,-2285.82 1652.22,-3345.49 687.04,-1081.07 1495.61,-2099.83 2402.33,-3035.39 3440.97,-3550.44 7595.97,-5445.65 12531.56,-5843.76 1406.85,-113.48 2818.93,-156.22 4223.93,-293.82 -1623.92,-643.51 -1949.37,-705.44 -3706.31,-570.08 -5515.16,424.9 -9792.78,2130.11 -13657.75,6118.02 -539.76,556.93 -1046.8,1143.83 -1516.56,1756.59 -399.68,521.35 -765.03,1048.02 -1101.86,1609.19 -1030.61,1716.99 -1829.67,3606.43 -2240.93,5569.64 -374.8,1789.2 -423.24,3621.22 -87.85,5515.04 283.23,1599.35 844.47,3201.65 1724.31,4770.12 831.37,1482.07 1946.87,2933.99 3380.61,4324.85 1800.72,1746.87 3702.76,2961.17 5652.17,3704.81 2437.31,929.75 5003.11,1138.23 7561.19,680.48 -1087.48,-95.7 -2201.65,-266.63 -3267.96,-527.63 -371.79,-90.99 -506.99,-106.61 -885.58,-151.06zm10894.87 -33245.38c1183.09,-289.59 2302.36,-724.3 3354.09,-1341.58 204.31,-120.3 -213.92,-853.11 -444.61,-717.29 -1275.37,748.54 -2637.91,1190.97 -4086.67,1451.07 398.58,189.84 791.72,392.62 1177.18,607.8zm-6396.56 -528.23c-5524.68,-771.49 -10961.43,1666.74 -14291.72,6071.65 -486.51,643.51 -923.37,1324.23 -1304.22,2035.42 495,-651.2 1029.39,-1271.87 1598.65,-1859.24 3903.53,-4027.7 8411.11,-5870.35 13997.29,-6247.83zm-16752.56 23325.79c873.72,2245.23 2308,4206.18 4031.19,5877.83 1847.72,1792.45 4026.75,3188.87 6527.86,3848.89 -2335.64,-996.43 -4455.26,-2444.78 -6276.52,-4211.57 -1676.17,-1626.04 -3156.69,-3464.95 -4282.53,-5515.15zm25502.85 7168.14c-224.43,180.48 -450.66,356.31 -678.58,527.4 254.88,-145.56 506.8,-299.63 755.43,-462.3 1786.19,-1168.68 3549.29,-2863.02 4503.48,-4791.69 -1280.31,1755.37 -2889.3,3366.71 -4580.33,4726.59zm6324.36 -14762.58c-33.07,-1176.84 -232.81,-2340.45 -582.8,-3463.83 107.02,1165.11 344.01,2319.94 582.8,3463.83z"></path></g></svg>