<svg xmlns="http://www.w3.org/2000/svg" xmlns:xlink="http://www.w3.org/1999/xlink" version="1.1" x="0px" y="0px" viewBox="0 0 64 64" enable-background="new 0 0 64 64" xml:space="preserve"><g><g><path d="M29,46c-1.654,0-3,1.346-3,3s1.346,3,3,3s3-1.346,3-3S30.654,46,29,46z M29,50c-0.551,0-1-0.448-1-1s0.449-1,1-1    s1,0.448,1,1S29.551,50,29,50z"></path><path d="M60,5c-2.206,0-4,1.794-4,4c0,0.124,0,0.382-0.583,0.686c-2.515,1.311-9.494,4.209-11.343,4.971l-7.461-4.308    c-0.041-0.023-0.083-0.044-0.126-0.062c-0.878-0.354-1.857-0.384-2.779-0.072l-2.799,1.022l-0.063-0.187    C30.437,9.824,29.293,9,28.001,9c-0.217,0-0.436,0.024-0.631,0.067L7.349,13.071C6.308,13.303,5.503,14.043,5.169,15H1    c-0.552,0-1,0.447-1,1v5c0,0.553,0.448,1,1,1h4.185C5.599,23.161,6.698,24,8,24h2c5.7,0,9,1.964,9,12c0,1.302,0.838,2.401,2,2.815    V56c0,1.654,1.346,3,3,3h10c1.654,0,3-1.346,3-3V38.806c0.566-0.202,1.075-0.553,1.434-1.052c0.562-0.78,0.716-1.79,0.412-2.703    l-4.673-14.019l3.796-1.898l4.422,2.521c0.039,0.022,0.08,0.042,0.122,0.059C42.987,21.903,43.487,22,44,22    s1.013-0.097,1.515-0.299l15.97-6.987c1.486-0.595,2.459-1.994,2.508-3.589C63.997,11.084,64,11.042,64,11V9    C64,6.794,62.206,5,60,5z M5,20H2v-3h3V20z M35,56c0,0.552-0.448,1-1,1H24c-0.551,0-1-0.448-1-1v-7c0-3.309,2.691-6,6-6    s6,2.691,6,6V56z M35,43.727C33.533,42.06,31.39,41,29,41s-4.533,1.06-6,2.727V39h12V43.727z M36.948,35.683    c0.102,0.305,0.05,0.642-0.138,0.902C36.623,36.845,36.32,37,36,37H22c-0.551,0-1-0.448-1-1c0-9.944-3.187-14-11-14H8    c-0.551,0-1-0.448-1-1v-5c0-0.473,0.322-0.874,0.762-0.972l20.019-4.004C27.854,11.008,27.929,11,28.001,11    c0.431,0,0.812,0.274,0.948,0.684L36.948,35.683z M62,10.892c-0.004,0.035-0.006,0.071-0.006,0.108    c0,0.823-0.491,1.553-1.281,1.869l-15.972,6.988c-0.451,0.183-0.969,0.189-1.426,0.021l-4.82-2.748    c-0.291-0.164-0.646-0.174-0.942-0.025l-4.019,2.01l-1.993-5.979l2.828-1.033c0.427-0.146,0.891-0.139,1.312,0.018l7.819,4.515    c0.268,0.153,0.592,0.177,0.879,0.06c0.365-0.15,8.986-3.684,11.962-5.235C57.427,10.894,58,10.043,58,9c0-1.103,0.897-2,2-2    s2,0.897,2,2V10.892z"></path><circle cx="24" cy="34" r="1"></circle><circle cx="10" cy="19" r="1"></circle><circle cx="33" cy="34" r="1"></circle></g></g></svg>