<svg xmlns="http://www.w3.org/2000/svg" xmlns:xlink="http://www.w3.org/1999/xlink" version="1.1" x="0px" y="0px" viewBox="0 0 100 100" enable-background="new 0 0 100 100" xml:space="preserve"><path d="M17.5,28.999c-2.757,0-5,2.243-5,5s2.243,5,5,5s5-2.243,5-5S20.257,28.999,17.5,28.999z M17.5,36.499  c-1.378,0-2.5-1.121-2.5-2.5s1.122-2.5,2.5-2.5s2.5,1.121,2.5,2.5S18.878,36.499,17.5,36.499z"></path><path d="M17.5,61.25c-2.757,0-5,2.243-5,5s2.243,5,5,5s5-2.243,5-5S20.257,61.25,17.5,61.25z M17.5,68.75  c-1.378,0-2.5-1.121-2.5-2.5s1.122-2.5,2.5-2.5s2.5,1.121,2.5,2.5S18.878,68.75,17.5,68.75z"></path><path d="M50,38.999c2.757,0,5-2.243,5-5s-2.243-5-5-5s-5,2.243-5,5S47.243,38.999,50,38.999z M50,31.499c1.378,0,2.5,1.121,2.5,2.5  s-1.122,2.5-2.5,2.5s-2.5-1.121-2.5-2.5S48.622,31.499,50,31.499z"></path><path d="M89.744,56.316c-0.648-1.7-0.994-3.439-0.994-5.159v-1.816c0-3.028,1.037-6.121,2.998-8.943  c1.31-1.885,2.002-4.097,2.002-6.398c0-6.203-5.046-11.25-11.25-11.25c-0.423,0-0.854,0.024-1.279,0.071  c-5.234,0.579-9.405,4.808-9.917,10.054c-0.269,2.757,0.471,5.498,2.085,7.719c1.871,2.572,2.859,5.429,2.859,8.259v2.795  c0,1.542-0.304,3.09-0.873,4.597c-0.068,0.047-0.139,0.087-0.206,0.136c-2.357,1.713-4.958,2.619-7.523,2.619h-2.795  c-2.565,0-5.167-0.906-7.523-2.62c-0.027-0.019-0.055-0.035-0.082-0.054c-0.65-1.703-0.997-3.445-0.997-5.167v-1.816  c0-1.839,0.388-3.701,1.127-5.512c0.749-0.548,1.444-1.175,2.062-1.887c2.327-2.68,3.405-6.251,2.957-9.797  c-0.732-5.808-5.503-10.371-11.342-10.851c-3.131-0.258-6.09,0.61-8.539,2.45c-2.331,1.75-4.919,2.695-7.483,2.734l-2.962,0.045  c-2.508,0-5.066-0.867-7.395-2.506c-2.499-1.76-5.538-2.535-8.61-2.188c-5.822,0.66-10.45,5.367-11.004,11.193  c-0.34,3.575,0.793,6.995,3.191,9.633c0.675,0.742,1.438,1.382,2.257,1.935c0.489,1.401,0.742,2.834,0.742,4.261v2.795  c0,2.83-0.989,5.687-2.859,8.259c-1.614,2.221-2.354,4.962-2.085,7.719c0.512,5.247,4.683,9.476,9.917,10.054  c0.425,0.047,0.855,0.071,1.279,0.071c3.005,0,5.83-1.171,7.955-3.295c2.125-2.125,3.295-4.95,3.295-7.955  c0-2.302-0.692-4.514-2.002-6.397c-1.961-2.823-2.998-5.916-2.998-8.944v-1.816c0-1.608,0.301-3.233,0.869-4.828  c0.05-0.035,0.102-0.065,0.151-0.1c2.584-1.855,5.415-2.858,8.188-2.9l2.001-0.03c2.613,0,5.302,0.858,7.801,2.471  c0.647,1.602,0.991,3.253,0.991,4.898v2.795c0,1.536-0.301,3.078-0.866,4.579c-2.888,2.006-4.9,5.197-5.305,8.857  c-0.394,3.554,0.739,7.107,3.106,9.752c2.37,2.646,5.765,4.164,9.315,4.164c2.558,0,5.017-0.77,7.111-2.226  c2.613-1.814,5.459-2.774,8.231-2.774h1.816c2.772,0,5.618,0.96,8.23,2.774c2.094,1.456,4.554,2.226,7.111,2.226  c3.55,0,6.945-1.518,9.315-4.164c2.368-2.645,3.5-6.198,3.106-9.751C94.522,61.477,92.563,58.328,89.744,56.316z M65.342,68.999  c-3.797,0-7.629,1.269-11.084,3.669c-1.253,0.871-2.725,1.331-4.258,1.331c-2.13,0-4.167-0.911-5.59-2.5  c-1.441-1.609-2.103-3.692-1.862-5.866c0.379-3.425,3.255-6.261,6.69-6.597c1.876-0.187,3.666,0.308,5.15,1.387  c3.217,2.34,6.835,3.576,10.464,3.576h2.795c3.628,0,7.247-1.236,10.464-3.575c1.484-1.079,3.279-1.573,5.149-1.388  c3.436,0.336,6.312,3.172,6.691,6.598c0.241,2.173-0.42,4.256-1.862,5.865c-1.422,1.589-3.46,2.5-5.59,2.5  c-1.533,0-3.005-0.46-4.258-1.331c-3.454-2.4-7.287-3.669-11.083-3.669H65.342z M24.695,61.528c1.017,1.463,1.555,3.182,1.555,4.971  c0,2.337-0.91,4.534-2.563,6.188c-1.886,1.887-4.459,2.809-7.19,2.507c-4-0.442-7.312-3.801-7.703-7.812  c-0.21-2.148,0.365-4.281,1.62-6.006c2.183-3.003,3.337-6.367,3.337-9.729v-2.795c0-0.929-0.097-1.857-0.27-2.779  c1.284,0.437,2.639,0.675,4.018,0.675l0.195-0.001c1.347-0.021,2.661-0.26,3.909-0.694c-0.224,1.093-0.352,2.192-0.352,3.288v1.816  C21.25,54.698,22.441,58.284,24.695,61.528z M21.854,40.352c-1.24,0.89-2.705,1.372-4.237,1.396l-0.119,0.001  c-2.105,0-4.127-0.896-5.547-2.457c-1.439-1.582-2.118-3.64-1.913-5.795c0.326-3.43,3.159-6.31,6.588-6.698  c0.295-0.033,0.588-0.05,0.877-0.05c1.547,0,3.032,0.47,4.294,1.357c3.176,2.236,6.729,3.418,10.273,3.418l3.039-0.045  c3.628-0.056,7.227-1.348,10.409-3.736c1.468-1.104,3.241-1.621,5.127-1.466c3.44,0.283,6.36,3.074,6.791,6.494  c0.274,2.169-0.355,4.262-1.771,5.894c-1.398,1.61-3.421,2.553-5.551,2.585l-0.117,0.001c-1.49,0-2.929-0.438-4.162-1.267  c-3.406-2.29-7.167-3.501-10.876-3.501l-2.078,0.03C29.084,36.57,25.271,37.897,21.854,40.352z M45.866,45.54  c1.318,0.463,2.709,0.71,4.13,0.71l0.194-0.001c1.387-0.021,2.744-0.281,4.025-0.741c-0.304,1.271-0.465,2.555-0.465,3.833v1.816  c0,1.185,0.145,2.374,0.407,3.554c-1.696-0.602-3.521-0.836-5.404-0.652c-0.981,0.096-1.926,0.316-2.829,0.628  c0.208-1.008,0.326-2.024,0.326-3.041v-2.795C46.25,47.743,46.112,46.636,45.866,45.54z M75.413,39.122  c-1.254-1.725-1.83-3.857-1.62-6.006c0.391-4.01,3.703-7.368,7.704-7.812c0.338-0.037,0.672-0.056,1.003-0.056  c4.825,0,8.75,3.926,8.75,8.75c0,1.789-0.538,3.508-1.555,4.972c-2.254,3.243-3.445,6.829-3.445,10.37v1.816  c0,1.186,0.145,2.376,0.408,3.557c-0.927-0.328-1.901-0.556-2.911-0.655c-1.854-0.18-3.65,0.046-5.322,0.626  c0.208-1.007,0.326-2.023,0.326-3.039v-2.795C78.75,45.489,77.596,42.125,75.413,39.122z"></path><path d="M50,61.499c-2.757,0-5,2.243-5,5s2.243,5,5,5s5-2.243,5-5S52.757,61.499,50,61.499z M50,68.999c-1.378,0-2.5-1.121-2.5-2.5  s1.122-2.5,2.5-2.5s2.5,1.121,2.5,2.5S51.378,68.999,50,68.999z"></path><path d="M82.5,71.499c2.757,0,5-2.243,5-5s-2.243-5-5-5s-5,2.243-5,5S79.743,71.499,82.5,71.499z M82.5,63.999  c1.378,0,2.5,1.121,2.5,2.5s-1.122,2.5-2.5,2.5s-2.5-1.121-2.5-2.5S81.122,63.999,82.5,63.999z"></path><path d="M82.5,38.75c2.757,0,5-2.243,5-5s-2.243-5-5-5s-5,2.243-5,5S79.743,38.75,82.5,38.75z M82.5,31.25  c1.378,0,2.5,1.121,2.5,2.5s-1.122,2.5-2.5,2.5s-2.5-1.121-2.5-2.5S81.122,31.25,82.5,31.25z"></path></svg>