<svg xmlns="http://www.w3.org/2000/svg" viewBox="0 0 48 48" x="0px" y="0px"><path fill-rule="evenodd" d="M39.5612029,11.2769317 C39.8252821,11.5991308 40.0778349,11.9276174 40.3188615,12.2618428 C39.4212172,12.8374071 39.1269708,14.0225928 39.6655721,14.9554777 C40.195361,15.8730989 41.3394655,16.2149182 42.2784773,15.761376 L42.327445,15.736182 C42.4982177,16.1150978 42.6566434,16.4982219 42.8027222,16.8849457 C41.7851433,17.2085261 41.1938041,18.2774491 41.4726753,19.3182108 C41.7462924,20.3393634 42.7589581,20.96513 43.7809975,20.7742326 L43.8377456,20.7609559 C43.9042352,21.1703232 43.9580306,21.5813519 43.9991317,21.9934075 C42.9345586,22.0454962 42.0890446,22.9240079 42.0890446,24 C42.0890446,25.0516109 42.8966753,25.9145895 43.9255171,26.0025163 L43.9991317,26.0065925 C43.9580306,26.4186481 43.9042352,26.8296768 43.8377456,27.2390441 C42.7968041,27.011777 41.7513709,27.6416834 41.4726753,28.6817892 C41.1990583,29.7029419 41.7631693,30.7512045 42.7437301,31.0969022 L42.8027222,31.1150543 C42.6566434,31.5017781 42.4982177,31.8849022 42.327445,32.263818 C41.3787795,31.7735582 40.2044217,32.1112074 39.6655721,33.0445223 C39.1357833,33.9621434 39.4118113,35.1238767 40.2740963,35.7103137 L40.3188615,35.7381572 C40.0778349,36.0723826 39.8252821,36.4008692 39.5612029,36.7230683 C38.7724761,36.0066801 37.5522511,36.0295211 36.7908861,36.7908861 C36.0416516,37.5401206 36.0075954,38.7337101 36.6887177,39.5233405 L36.7230683,39.5612029 C36.4008692,39.8252821 36.0723826,40.0778349 35.7381572,40.3188615 C35.1625929,39.4212172 33.9774072,39.1269708 33.0445223,39.6655721 C32.1269011,40.195361 31.7850818,41.3394655 32.238624,42.2784773 L32.263818,42.327445 C31.8849022,42.4982177 31.5017781,42.6566434 31.1150543,42.8027222 C30.7914739,41.7851433 29.7225509,41.1938041 28.6817892,41.4726753 C27.6606366,41.7462924 27.03487,42.7589581 27.2257674,43.7809975 L27.2390441,43.8377456 C26.8296768,43.9042352 26.4186481,43.9580306 26.0065925,43.9991317 C25.9545038,42.9345586 25.0759921,42.0890446 24,42.0890446 C22.9483891,42.0890446 22.0854105,42.8966753 21.9974837,43.9255171 L21.9934075,43.9991317 C21.5813519,43.9580306 21.1703232,43.9042352 20.7609559,43.8377456 C20.988223,42.7968041 20.3583166,41.7513709 19.3182108,41.4726753 C18.2970581,41.1990583 17.2487955,41.7631693 16.9030978,42.7437301 L16.8849457,42.8027222 C16.4982219,42.6566434 16.1150978,42.4982177 15.736182,42.327445 C16.2264418,41.3787795 15.8887926,40.2044217 14.9554777,39.6655721 C14.0378566,39.1357833 12.8761233,39.4118113 12.2896863,40.2740963 L12.2618428,40.3188615 C11.9276174,40.0778349 11.5991308,39.8252821 11.2769317,39.5612029 C11.9933199,38.7724761 11.9704789,37.5522511 11.2091139,36.7908861 C10.4598794,36.0416516 9.26628994,36.0075954 8.4766595,36.6887177 L8.43879706,36.7230683 C8.17471791,36.4008692 7.92216506,36.0723826 7.68113853,35.7381572 C8.57878279,35.1625929 8.87302921,33.9774072 8.33442786,33.0445223 C7.80463904,32.1269011 6.66053455,31.7850818 5.72152269,32.238624 L5.67255496,32.263818 C5.50178232,31.8849022 5.3433566,31.5017781 5.19727779,31.1150543 C6.2148567,30.7914739 6.80619592,29.7225509 6.52732466,28.6817892 C6.25370764,27.6606366 5.24104192,27.03487 4.21900249,27.2257674 L4.16225443,27.2390441 C4.09576479,26.8296768 4.04196943,26.4186481 4.00086834,26.0065925 C5.0654414,25.9545038 5.91095541,25.0759921 5.91095541,24 C5.91095541,22.9483891 5.10332472,22.0854105 4.0744829,21.9974837 L4.00086834,21.9934075 C4.04196943,21.5813519 4.09576479,21.1703232 4.16225443,20.7609559 C5.20319594,20.988223 6.24862915,20.3583166 6.52732466,19.3182108 C6.80094168,18.2970581 6.23683074,17.2487955 5.25626993,16.9030978 L5.19727779,16.8849457 C5.3433566,16.4982219 5.50178232,16.1150978 5.67255496,15.736182 C6.6212205,16.2264418 7.79557826,15.8887926 8.33442786,14.9554777 C8.86421668,14.0378566 8.58818868,12.8761233 7.72590366,12.2896863 L7.68113853,12.2618428 C7.92216506,11.9276174 8.17471791,11.5991308 8.43879706,11.2769317 C9.22726293,11.9933247 10.4476675,11.9705603 11.2091139,11.2091139 C11.9583484,10.4598794 11.9924046,9.26628994 11.3112823,8.4766595 L11.2769317,8.43879706 C11.5991308,8.17471791 11.9276174,7.92216506 12.2618428,7.68113853 C12.8374071,8.57878279 14.0225928,8.87302921 14.9554777,8.33442786 C15.8730989,7.80463904 16.2149182,6.66053455 15.761376,5.72152269 L15.736182,5.67255496 C16.1150978,5.50178232 16.4982219,5.3433566 16.8849457,5.19727779 C17.2085261,6.2148567 18.2774491,6.80619592 19.3182108,6.52732466 C20.3393634,6.25370764 20.96513,5.24104192 20.7742326,4.21900249 L20.7609559,4.16225443 C21.1703232,4.09576479 21.5813519,4.04196943 21.9934075,4.00086834 C22.0454962,5.0654414 22.9240079,5.91095541 24,5.91095541 C25.0516109,5.91095541 25.9145895,5.10332472 26.0025163,4.0744829 L26.0065925,4.00086834 C26.4186481,4.04196943 26.8296768,4.09576479 27.2390441,4.16225443 C27.011777,5.20319594 27.6416834,6.24862915 28.6817892,6.52732466 C29.7029419,6.80094168 30.7512045,6.23683074 31.0969022,5.25626993 L31.1150543,5.19727779 C31.5017781,5.3433566 31.8849022,5.50178232 32.263818,5.67255496 C31.7735582,6.6212205 32.1112074,7.79557826 33.0445223,8.33442786 C33.9621434,8.86421668 35.1238767,8.58818868 35.7103137,7.72590366 L35.7381572,7.68113853 C36.0723826,7.92216506 36.4008692,8.17471791 36.7230683,8.43879706 C36.0066753,9.22726293 36.0294397,10.4476675 36.7908861,11.2091139 C37.5401206,11.9583484 38.7337101,11.9924046 39.5233405,11.3112823 L39.5612029,11.2769317 Z M16.2218254,31.7781746 C15.4407768,30.997126 14.1744469,30.997126 13.3933983,31.7781746 C12.6123497,32.5592232 12.6123497,33.8255531 13.3933983,34.6066017 C14.1744469,35.3876503 15.4407768,35.3876503 16.2218254,34.6066017 C17.002874,33.8255531 17.002874,32.5592232 16.2218254,31.7781746 Z M15.7263568,11.4846011 L18.3431458,14.1005051 C18.73367,14.4910294 18.73367,15.1241943 18.3431458,15.5147186 L14.8076118,19.0502525 C14.4170876,19.4407768 13.7839226,19.4407768 13.3933983,19.0502525 L10.9459331,16.6037078 C8.26645916,21.3265867 8.35413351,27.1936912 11.2089561,31.8416903 L13.7469517,29.3033009 C14.1074356,28.9428169 14.6746667,28.9150874 15.0669579,29.2201123 L15.1611652,29.3033009 L18.6966991,32.8388348 C19.0571831,33.1993187 19.0849126,33.7665498 18.7798877,34.158841 L18.6966991,34.2530483 L16.1591862,36.7915822 C20.8070464,39.6458775 26.6737102,39.7333724 31.3962922,37.0540669 L28.9497475,34.6066017 C28.5892635,34.2461178 28.561534,33.6788867 28.8665589,33.2865955 L28.9497475,33.1923882 L32.4852814,29.6568542 C32.8457653,29.2963703 33.4129964,29.2686408 33.8052876,29.5736656 L33.8994949,29.6568542 L36.5153989,32.2736432 C39.733428,27.4168769 39.8254891,21.0995213 36.7915822,16.1591862 L34.2530483,18.6966991 C33.862524,19.0872234 33.2293591,19.0872234 32.8388348,18.6966991 L29.3033009,15.1611652 C28.9127766,14.7706409 28.9127766,14.137476 29.3033009,13.7469517 L31.8416903,11.2089561 C26.9012259,8.17450001 20.5834103,8.26638165 15.7263568,11.4846011 Z M15.868272,13.7469517 C15.1191754,12.9978551 13.9236901,12.9672102 13.1380708,13.6550171 L12.8488237,13.9669341 L12.8488237,13.9669341 C12.2650321,14.7504252 12.3285849,15.8641188 13.0398449,16.5753788 C13.8208935,17.3564274 15.0872234,17.3564274 15.868272,16.5753788 C16.6493206,15.7943302 16.6493206,14.5280003 15.868272,13.7469517 Z M34.2530483,32.131728 C33.4719997,31.3506794 32.2056698,31.3506794 31.4246212,32.131728 C30.6435726,32.9127766 30.6435726,34.1791065 31.4246212,34.9601551 C32.1358812,35.6714151 33.2495748,35.7349679 34.0327517,35.1508135 C34.1382626,35.0563658 34.2424406,34.9598037 34.3455623,34.86149 C35.0327703,34.0755545 35.0019082,32.8805879 34.2530483,32.131728 Z M34.6066017,13.3933983 C33.8255531,12.6123497 32.5592232,12.6123497 31.7781746,13.3933983 C30.997126,14.1744469 30.997126,15.4407768 31.7781746,16.2218254 C32.5592232,17.002874 33.8255531,17.002874 34.6066017,16.2218254 C35.3521481,15.476279 35.3860366,14.2885651 34.7082671,13.5028217 L34.6066017,13.3933983 Z"></path></svg>