<svg xmlns="http://www.w3.org/2000/svg" xmlns:xlink="http://www.w3.org/1999/xlink" xml:space="preserve" version="1.1" style="shape-rendering:geometricPrecision;text-rendering:geometricPrecision;image-rendering:optimizeQuality;" viewBox="0 0 50000 50000" x="0px" y="0px" fill-rule="evenodd" clip-rule="evenodd"><defs><style type="text/css">
   
    .str0 {stroke:black;stroke-width:564.44}
    .fil0 {fill:none}
   
  </style></defs><g><g><path class="fil0 str0" d="M35463 9186c2532,5179 3519,7055 854,13240 -1185,2750 -2635,5171 -3616,7864 -239,655 -1325,2813 -701,3710 3161,4542 1831,11950 -5343,12263 -154,927 482,3412 -2947,1419 -7756,-4614 -6588,-11610 -1119,-17191 2106,-2149 2149,-2604 3645,-5287 526,-944 1055,-1819 1449,-2282 711,-835 330,111 1497,-1418 1214,-1593 4390,-5044 1366,-7539 -1047,-865 -2777,-1502 -4487,-757 -1341,585 -2089,1844 -2952,2889 -545,661 -2025,2763 -2619,3057 -730,362 -4528,226 -5654,233 -2542,16 -3354,109 -2259,-2452l5259 -11955c1817,-4215 2665,-3997 6912,-2189 2783,1185 5295,2271 8059,3364 1737,688 1876,1437 2656,3031z"></path><circle class="fil0 str0" cx="26009" cy="38906" r="4250"></circle><circle class="fil0 str0" cx="22219" cy="7566" r="3000"></circle><path class="fil0 str0" d="M27378 23325c1294,-1771 5074,-156 8057,1018"></path><path class="fil0 str0" d="M28522 22545c7988,225 8199,-6523 6665,-9914 -1296,-2867 -2034,-4767 -1216,-5905"></path></g></g></svg>