<svg xmlns="http://www.w3.org/2000/svg" viewBox="0 0 64 64" x="0px" y="0px"><title>bike bicycle part equipment accessories rear derailleur</title><g data-name="Layer 19"><path d="M30.41,43.4a1.07,1.07,0,0,0-.34.39L28,48a1,1,0,0,0-.09.65L28.92,54a1,1,0,0,0,.47.67l5.32,3.19a1,1,0,0,0,.51.14.89.89,0,0,0,.36-.07,1,1,0,0,0,.6-.64l.28-.91.17-.55.6-1.95v0l.37-1.2a3.11,3.11,0,0,0,2.88-3.11,3.15,3.15,0,0,0-1.17-2.44l.37-1.2.6-2,.15-.49a.83.83,0,0,0,0-.15L41.52,36l2.4-7.19a1.94,1.94,0,0,1-1.25.45h-4.1l-8.95,1.38L33.16,35v6.56Zm6.94,5a1.13,1.13,0,1,1,0,2.25l-.23,0a1.15,1.15,0,0,1-.9-1.11A1.13,1.13,0,0,1,37.35,48.43Z"></path><path d="M43.73,50.55a1,1,0,1,0,0-2h-.14a6.27,6.27,0,0,0-1.12-2.7l.1-.1a1,1,0,0,0,0-1.42,1,1,0,0,0-1.34-.06l-.78,2.55a4.12,4.12,0,0,1-2.08,6.72l-.16.54s0,.06,0,.09l-.85,2.77h0a1,1,0,0,0,1-1v-.16a6,6,0,0,0,2.7-1.12l.11.11a1,1,0,0,0,1.41,0,1,1,0,0,0,0-1.41l-.1-.1a6.14,6.14,0,0,0,1.11-2.71Z"></path><path d="M26.45,14.16a4.17,4.17,0,0,0,1.33.22h.06a4.1,4.1,0,0,0,2-.55A4.2,4.2,0,1,0,24.71,13,4.12,4.12,0,0,0,26.45,14.16ZM27.78,8a2.19,2.19,0,1,1-2.2,2.19A2.2,2.2,0,0,1,27.78,8Z"></path><path d="M29.84,17V15a5.19,5.19,0,0,1-2,.43h-.07a5.23,5.23,0,0,1-1.65-.27,4.91,4.91,0,0,1-1.77-1l-2.27,6.82Z"></path><path d="M21.51,22.64a.84.84,0,0,0-.05.31v4.26a1,1,0,0,0,.29.71l2.13,2.13a1,1,0,0,0,.7.29h.16l1-.15,3.24-.5,2.21-.34,7.31-1.13h4.18a1,1,0,0,0,.71-.29l1.23-1.22h0l2-2a1,1,0,0,0,.29-.71V18.7a1,1,0,0,0-.4-.8l-4.25-3.19a1,1,0,0,0-.6-.2H36.29a1,1,0,0,0-.56.17l-3.14,2.09-2.75,1.38L22,22.06A1,1,0,0,0,21.51,22.64Z"></path><path d="M20.84,28.38l-.6,1.31-.84,1.87-.59,1.3a1,1,0,0,0,.46,1.31l4.2,2.08a1,1,0,0,0,.44.1,1,1,0,0,0,.81-.42L27,32.81a1,1,0,0,0-.23-1.39l-.44-.32-1.41.22-.31,0a2,2,0,0,1-1.41-.58L21,28.63A1.16,1.16,0,0,1,20.84,28.38Z"></path><path d="M18.61,27.3a1,1,0,0,0-1,.39l-1.24,1.73a1,1,0,0,0,0,1.11,1,1,0,0,0,1,.46l1.07-.18.2.15.76-1.68.17-.37-.13-.79A1,1,0,0,0,18.61,27.3Z"></path></g></svg>