<svg xmlns="http://www.w3.org/2000/svg" viewBox="0 0 48 48" x="0px" y="0px"><path fill-rule="evenodd" d="M24,6 C26.209139,6 28,7.790861 28,10 C28,11.4801068 27.1961002,12.7724528 26.0011092,13.4642293 L26,20 L37,20 C39.209139,20 41,21.790861 41,24 L41,36 C41,38.209139 39.209139,40 37,40 L11,40 C8.790861,40 7,38.209139 7,36 L7,24 C7,21.790861 8.790861,20 11,20 L22,20 L21.9998796,13.4648015 C20.8043432,12.7731656 20,11.480515 20,10 C20,7.790861 21.790861,6 24,6 Z M37,21 L11,21 C9.40231912,21 8.09633912,22.24892 8.00509269,23.8237272 L8,24 L8,36 C8,37.5976809 9.24891996,38.9036609 10.8237272,38.9949073 L11,39 L37,39 C38.5976809,39 39.9036609,37.75108 39.9949073,36.1762728 L40,36 L40,24 C40,22.3431458 38.6568542,21 37,21 Z M37,22 C38.1045695,22 39,22.8954305 39,24 L39,36 C39,37.1045695 38.1045695,38 37,38 L11,38 C9.8954305,38 9,37.1045695 9,36 L9,24 C9,22.8954305 9.8954305,22 11,22 L37,22 Z M24,8 C22.8954305,8 22,8.8954305 22,10 C22,11.1045695 22.8954305,12 24,12 C25.1045695,12 26,11.1045695 26,10 C26,8.8954305 25.1045695,8 24,8 Z"></path></svg>