<svg xmlns="http://www.w3.org/2000/svg" xmlns:xlink="http://www.w3.org/1999/xlink" version="1.1" x="0px" y="0px" viewBox="0 0 64 64" enable-background="new 0 0 64 64" xml:space="preserve"><g><g><path d="M45.501,8.944c-2.133-1.236-4.87-1.236-7.003,0C38.19,9.123,38,9.453,38,9.81v2.572l-2-1V1c0-0.553-0.448-1-1-1h-6    c-0.552,0-1,0.447-1,1v10.382l-2,1V9.81c0-0.356-0.19-0.687-0.499-0.865c-2.133-1.236-4.87-1.236-7.003,0    C18.19,9.123,18,9.453,18,9.81V14v41c0,0.379,0.214,0.725,0.553,0.895L20,56.618V60c0,2.206,1.794,4,4,4h1c0.552,0,1-0.447,1-1    V35.656L29.657,32h5.606L38,35.581V63c0,0.553,0.448,1,1,1h1c2.206,0,4-1.794,4-4v-3.382l1.447-0.724    C45.786,55.725,46,55.379,46,55V14V9.81C46,9.453,45.81,9.123,45.501,8.944z M36,24h-8c-0.717,0-1.397,0.202-2,0.554v-3.936    L29.236,19h5.528L38,20.618v3.936C37.397,24.202,36.717,24,36,24z M24,26.344l-4,4V15h4V26.344z M40,15h4v15.344l-4-4V15z     M40,10.422c1.262-0.555,2.738-0.555,4,0V13h-4V10.422z M29.447,12.895C29.786,12.725,30,12.379,30,12V2h4v10    c0,0.379,0.214,0.725,0.553,0.895L38,14.618v3.764l-2.553-1.276C35.308,17.036,35.155,17,35,17h-6    c-0.155,0-0.309,0.036-0.447,0.105L26,18.382v-3.764L29.447,12.895z M20,10.422c1.262-0.555,2.738-0.555,4,0V13h-4V10.422z     M44,54.382l-1.447,0.724C42.214,55.275,42,55.621,42,56v4c0,1.103-0.897,2-2,2V35.242c0-0.22-0.072-0.433-0.206-0.607    l-3.243-4.242C36.363,30.146,36.069,30,35.757,30h-6.515c-0.265,0-0.52,0.105-0.707,0.293l-4.243,4.242    C24.105,34.723,24,34.977,24,35.242V62c-1.103,0-2-0.897-2-2v-4c0-0.379-0.214-0.725-0.553-0.895L20,54.382V34    c0-0.534,0.208-1.036,0.586-1.414l6-6C26.958,26.214,27.474,26,28,26h8c0.526,0,1.042,0.214,1.414,0.586l6,6    C43.792,32.964,44,33.466,44,34V54.382z"></path></g></g></svg>