<svg xmlns="http://www.w3.org/2000/svg" xmlns:xlink="http://www.w3.org/1999/xlink" xml:space="preserve" version="1.1" style="shape-rendering:geometricPrecision;text-rendering:geometricPrecision;image-rendering:optimizeQuality;" viewBox="0 0 50000 50000" x="0px" y="0px" fill-rule="evenodd" clip-rule="evenodd"><defs><style type="text/css">
   
    .fil0 {fill:black;fill-rule:nonzero}
   
  </style></defs><g><path class="fil0" d="M22597.42 38753.04l-15379.8 -4896.48c-1320.94,-420.55 -1473.9,-855.76 -806.15,-2091.72l7302.05 -13515.94c108.21,-200.29 220.48,-398.41 327.48,-599.06 370.34,-694.51 628.53,-594.23 892,101.7 2667.93,7044.96 5552.5,14085.8 8319.15,21100.91 59.17,150.05 24.31,116.67 176.33,77.19 564.18,-146.57 1174.09,20.77 1608.78,418.18 299.35,273.68 505.54,646.2 556,1060.29l19413.97 -23035.68c70.74,-83.92 148.68,-147.54 229.4,-190.75 151.14,-80.94 120.8,-84.26 76.14,-208.24l-146.47 -424.43c-106.61,-309.59 364.1,-471.67 470.7,-162.1 178.3,516.67 355.44,1028.39 539.79,1541.36 55.95,155.7 35.43,232.99 223.93,238.94 351.81,11.11 856.5,-116.42 1283.27,-276.21 336.43,-125.96 1212.48,-442.24 1011.98,-892.73l-3061.86 -8363.9c-82.24,-224.65 -91.08,-336.3 -391.12,-229.42 -542.68,181.51 -1083.91,369.27 -1625.91,553.06 -268.09,90.92 -454.27,154.09 -421.8,356.59 35.53,221.8 187.58,586.13 263.64,808.51 105.33,310.89 -367.35,471 -472.66,160.16 -57.89,-169.26 -18.27,-130.93 -179.87,-89.23 -132.51,34.22 -267.05,50.15 -402.18,68.15l-26824.97 3572.6c-152.82,20.35 -137.64,-6.28 -78.57,136.03 125.88,303.16 -335.06,494.55 -460.94,191.4l-234.17 -564.18c-70.27,-169.35 -30.13,-156.76 -198.74,-94.18l-1072.34 398.03c-119.75,44.44 -101.46,22.02 -51.09,146.7 84.91,210.08 175.9,424.52 249.92,634.5 148.85,422.22 135.8,761.77 -139.31,1190.6l-10898.19 16985.31c-253.35,394.85 -457.91,728.61 -765.35,1095.72 -393.29,469.65 -660.02,870.07 -514.32,1506.22 82.99,362.24 58.52,551.73 -57.01,867.56 -218.7,598.06 -55.72,822.98 114.73,1058.21 246.59,340.3 170.15,398.41 193.14,757.27 -15.46,372.52 395.49,399.63 412.51,26.24 7.67,-168.53 16.7,-341.23 31.64,-508.83 91.75,-548.87 501.37,-575.43 992.32,-493.2l19050.44 3190.95c143.38,24.03 118.26,47.23 129.18,-82.59 22.75,-269.56 114.25,-518.16 258.57,-728.97 95.08,-138.89 124.45,-109.12 -60.84,-136.3l-18528.97 -2716.92c-641.12,-94 -1300.41,-366.04 -1572.99,-998.61 -237.81,-551.9 -95.8,-1177.71 155.66,-1716.92 205.34,-440.28 507.07,-869.37 770.31,-1277.92l7852.86 -12186.74c896.3,-1390.97 1792.6,-2781.93 2688.91,-4172.89 177.06,-275.83 596.97,-6.27 419.92,269.54l-2511.13 4263.79 -6204.46 11052.15c-281.21,500.9 -163.4,563.59 -292.38,1103.71 -97.86,409.75 -475.65,533.26 -77.33,974.02 156.08,172.72 310.04,343.09 296.16,771.01 -5.19,161.29 -17.83,312.76 -17.49,470.47 0.48,220.06 390.2,253.85 403.3,5.91 13.13,-248.38 2.23,-447.58 160.56,-643.53 165.7,-198.02 409.43,-228.84 650.85,-198.65 335.62,42.02 754.96,205.81 1082.63,310.6l11345.96 3628.3c265.36,84.87 419.97,124.26 695.6,164.68l2806.44 411.51c112.35,14.66 133.2,-17.77 100.37,-101.22 -19.46,-49.46 -19.21,-42.2 -108.18,-70.53zm18967.9 -18398.99c84.67,-100.06 237.01,28.84 152.34,128.9l-12622.68 14920.93c-84.67,100.06 -237.01,-28.84 -152.34,-128.9l12622.68 -14920.93zm-1563.82 -7993.56c130.51,-13.36 150.83,185.08 20.32,198.44l-20890.14 2158.92c-130.51,13.36 -150.83,-185.08 -20.32,-198.44l20890.14 -2158.92zm-31854.06 13746.46l-4400.15 6828.54c-254.91,395.59 -555.6,817.51 -755.46,1242.7 -195.29,415.44 -328.9,914.38 -153.99,1320.3 197.87,459.19 729.42,634.74 1186.27,701.73l11203.23 1642.75c1576.43,231.15 1317.6,210.23 -19.23,-217.27l-7577.84 -2423.3c-281.91,-90.16 -718.01,-257.39 -999.83,-296.35 -166.81,-23.06 -288.64,-20.72 -297.78,172.48 -25.45,537.94 -131.05,887.37 -703.76,868.08 -740.34,-35.92 -666.89,-649.61 -649.56,-1186.73 7.39,-228.13 -79.33,-324.11 -167.26,-421.41 -656.95,-726.95 -153.22,-940.47 -37.91,-1423.24 126.26,-528.61 -32.12,-567.43 289.55,-1140.47l3161.91 -5632.41c783.37,-1395.46 773.81,-1357.6 -78.19,-35.4zm-5546.05 11648.2c-31.64,165.72 -20.86,367.37 -28.45,539.97 -34.24,775.99 -1335.14,953.6 -1403.98,-119.88 -14.67,-228.77 47.47,-293.32 -99.4,-495.57 -252.35,-348.25 -493.42,-681.14 -177.39,-1528.93 83.87,-225.14 91.87,-341.77 37.65,-578.48 -184.34,-804.96 114.58,-1336.93 617.82,-1937.86 278.72,-332.83 465.37,-635.23 691.7,-987.96l10902.31 -16991.74c213.45,-332.71 232.94,-509.29 119.82,-814.35 -76.94,-207.53 -165.89,-418.85 -249.47,-626.47 -55.12,-136.93 -37.62,-122.12 -162.11,-104.15 -189.75,27.38 -368.4,-10.63 -505.25,-158.78 -95.02,-102.85 -197.64,-353 -229.81,-484.93 -87.02,-356.62 108.84,-661.15 450.07,-778.76l1798.31 -690.27c312.65,-119.64 644.41,-71.73 839.09,220.43 72.09,108.13 145.34,312.74 170.65,420.8 45.28,193.2 4.41,385.91 -119.63,533.39 -92.94,110.5 -38.77,209.03 104.92,189.89l26957.4 -3590.24c125.99,-16.78 237.7,-22.26 357.26,-53.72 91.38,-24.05 99.42,-58.4 74.67,-140.11 -13.66,-45.1 -19.78,-68.43 -31.76,-111.91 -183.78,-666.45 189.66,-793.15 741.11,-980.17l1620.06 -551.09c565.34,-201.41 841.38,24.21 1026.03,528.62l3116.76 8514.14c245.4,691.45 -903.62,1221.33 -1435.47,1411.51 -488.88,174.79 -1782.97,519.13 -2008.85,-103.59l-214.83 -592.2c-44.15,-121.75 -93.65,-93.56 -172.53,0.01l-20197.55 23960.39c-459.43,484.48 -1165.78,600.65 -1773.76,366.57 -453.69,-174.67 -830.93,-532.69 -1016.57,-989.76 -60.5,-148.97 -11.26,-125.52 -173.47,-152.69l-19185.13 -3213.51c-143.11,-23.97 -403.95,-98.53 -440.22,91.4zm22165.84 205.35c-105.31,310.84 -577.99,150.73 -472.66,-160.16 88.54,-259 88.22,-197.97 -13.67,-453.96l-8418.95 -21154.29c-77.52,-194.83 -39.79,-157.52 -255.97,-135.18 -326.29,33.39 -377.05,-462.71 -50.78,-496.1l27763.16 -2868.86c239.36,-24.71 502.51,7.29 467.63,-109.07 -107.82,-334.75 358.29,-476.26 468.76,-167.96 254,705.92 507.99,1411.83 761.98,2117.75 110.47,308.29 -358.29,476.26 -468.76,167.96 -67.06,-186.37 -35.03,-180.91 -162.89,-29.88l-19446.05 22970.31c-139.14,164.35 -96.89,100.31 -171.8,319.44zm-65.91 1754.5c-455.94,-416.84 -1203,-479.06 -1647.42,-10.43 -207.23,218.54 -291.12,492.57 -275.04,764.49 28.79,486.72 356.81,897.3 790.31,1074.27 425.51,173.69 933.68,110.19 1260.05,-233.95 441.11,-465.17 323.38,-1181.79 -127.9,-1594.38zm-8321.41 -23568.18l8346.77 20972.93 19396.99 -22912.37c117.9,-139.26 163.8,-229.6 106.16,-398.08 -48.02,-140.37 -103.73,-282.35 -162.01,-407.87 -144.07,-310.29 -310.26,-238.3 -618.74,-221.64l-26967.03 2786.59c-202.73,20.97 -178.56,-11.59 -102.14,180.44zm-9011.89 17235.14l14933.04 4754.26c181.9,57.92 162.19,76.21 92.04,-101.67l-7810.94 -19805.37c-156.09,-395.81 -66.46,-405.25 -276.5,-22.44 -60,109.33 -120.24,218.59 -179.5,328.28l-7276.36 13468.39c-511.19,946.17 -487.23,1058.45 518.22,1378.55zm7494.59 -20700.65l-61.92 -159.08c-63.9,-121.84 -168.17,-93.48 -259.74,-58.44l-1798.32 690.23c-81.6,27.15 -155.9,63.48 -148.22,160.88 5.67,71.95 62.53,231.26 141.13,298.42 49.97,38.18 160.89,-7.87 229.34,-33.28l1767.86 -656.2c132.64,-49.23 191.84,-81.53 129.87,-242.53z"></path></g></svg>