<svg xmlns="http://www.w3.org/2000/svg" viewBox="0 0 48 48" x="0px" y="0px"><path fill-rule="evenodd" d="M24.7285534,11.1700487 L24.7290202,16.8897462 L26.0082403,18.809249 C26.7405889,19.9077719 27.6832184,20.8504014 28.7817413,21.58275 L31.5431693,23.423702 C33.0483868,24.4271803 33.6540698,26.2742989 33.1511699,27.9198155 L34.1887085,28.9586309 C35.7508057,30.5207281 35.7508057,33.053388 34.1887085,34.6154852 L32.7744949,36.0296988 C31.3104688,37.4937249 28.9939215,37.5856389 27.42285,36.3054407 C25.5147316,36.9317589 23.3315816,36.4862803 21.8143398,34.9690386 C20.3030771,33.4577758 19.8551471,31.2858428 20.47055,29.382942 L18.2080483,27.1204403 C16.3051475,27.7358431 14.1332144,27.2879132 12.6219517,25.7766504 C11.1047099,24.2594087 10.6592313,22.0762587 11.2855159,20.1679812 C10.0053514,18.5970687 10.0972654,16.2805214 11.5612915,14.8164953 L12.9755051,13.4022818 C14.5376022,11.8401846 17.0702621,11.8401846 18.6323593,13.4022818 L19.6714597,14.4400082 C20.3395617,14.2367802 21.050366,14.2122064 21.7287948,14.3662868 L21.7285534,11.1700487 C21.7285534,10.617764 22.1762686,10.1700487 22.7285534,10.1700487 L23.7285534,10.1700487 C24.2808381,10.1700487 24.7285534,10.617764 24.7285534,11.1700487 Z M18.9859127,19.4126894 C17.6190777,18.0458544 15.4030003,18.0458544 14.0361652,19.4126894 C12.6693302,20.7795244 12.6693302,22.9956018 14.0361652,24.3624369 C15.4030003,25.7292719 17.6190777,25.7292719 18.9859127,24.3624369 C20.3527477,22.9956018 20.3527477,20.7795244 18.9859127,19.4126894 Z M28.1783009,28.6050776 C26.8114658,27.2382425 24.5953884,27.2382425 23.2285534,28.6050776 C21.8617184,29.9719126 21.8617184,32.18799 23.2285534,33.554825 C24.5953884,34.92166 26.8114658,34.92166 28.1783009,33.554825 C29.5451359,32.18799 29.5451359,29.9719126 28.1783009,28.6050776 Z M18.2788059,20.1197962 C19.2551167,21.0961069 19.2551167,22.6790194 18.2788059,23.6553301 C17.3024952,24.6316408 15.7195827,24.6316408 14.743272,23.6553301 C13.7669613,22.6790194 13.7669613,21.0961069 14.743272,20.1197962 C15.7195827,19.1434855 17.3024952,19.1434855 18.2788059,20.1197962 Z M27.4711941,29.3121843 C28.4475048,30.2884951 28.4475048,31.8714075 27.4711941,32.8477182 C26.4948833,33.824029 24.9119709,33.824029 23.9356602,32.8477182 C22.9593494,31.8714075 22.9593494,30.2884951 23.9356602,29.3121843 C24.9119709,28.3358736 26.4948833,28.3358736 27.4711941,29.3121843 Z"></path></svg>