<svg xmlns="http://www.w3.org/2000/svg" xmlns:xlink="http://www.w3.org/1999/xlink" xml:space="preserve" version="1.1" style="shape-rendering:geometricPrecision;text-rendering:geometricPrecision;image-rendering:optimizeQuality;" viewBox="0 0 50000 50000" x="0px" y="0px" fill-rule="evenodd" clip-rule="evenodd"><defs><style type="text/css">
   
    .str0 {stroke:black;stroke-width:564.44}
    .fil0 {fill:none}
   
  </style></defs><g><g><g><path class="fil0 str0" d="M38434 22034l5597 0c114,0 206,93 206,206l0 1078 2595 0c64,0 117,52 117,116l0 3100c0,64 -53,116 -117,116l-2595 0 0 1078c0,113 -92,206 -206,206l-5597 0c-113,0 -206,-93 -206,-206l0 -5488c0,-113 93,-206 206,-206z"></path><path class="fil0 str0" d="M20562 20026l8615 0 3267 -1315 0 -1496c0,-722 590,-1312 1311,-1312 721,0 1311,590 1311,1312l0 2811 780 0c568,0 1033,464 1033,1032l0 7879c0,568 -465,1032 -1033,1032l-780 0 0 2817c0,721 -590,1311 -1311,1311 -721,0 -1311,-590 -1311,-1311l0 -1357 -3627 -1460 -7894 0 -3399 1368 0 1449c0,721 -590,1311 -1311,1311 -721,0 -1311,-590 -1311,-1311l0 -2817 -832 0c-568,0 -1033,-464 -1033,-1032l0 -7879c0,-568 465,-1032 1033,-1032l832 0 0 -2811c0,-722 590,-1312 1311,-1312 721,0 1311,590 1311,1312l0 1588 3038 1223z"></path><path class="fil0 str0" d="M5969 22034l5597 0c113,0 206,93 206,206l0 5488c0,113 -93,206 -206,206l-5597 0c-114,0 -206,-93 -206,-206l0 -1078 -2595 0c-64,0 -117,-52 -117,-116l0 -3100c0,-64 53,-116 117,-116l2595 0 0 -1078c0,-113 92,-206 206,-206z"></path></g><line class="fil0 str0" x1="14902" y1="20026" x2="14902" y2="29969"></line><line class="fil0 str0" x1="17524" y1="18363" x2="17524" y2="31946"></line><line class="fil0 str0" x1="35066" y1="20026" x2="35066" y2="29969"></line><line class="fil0 str0" x1="32444" y1="18363" x2="32444" y2="31946"></line><line class="fil0 str0" x1="44236" y1="22402" x2="44236" y2="27384"></line><line class="fil0 str0" x1="5766" y1="22749" x2="5766" y2="27730"></line></g></g></svg>