<svg xmlns="http://www.w3.org/2000/svg" xmlns:xlink="http://www.w3.org/1999/xlink" version="1.1" x="0px" y="0px" viewBox="0 0 100 100" enable-background="new 0 0 100 100" xml:space="preserve"><g display="none"><rect x="-192" display="inline" width="185" height="99"></rect><rect y="-36" display="inline" width="100" height="30"></rect><text transform="matrix(1 0 0 1 66 -19.5)" display="inline" fill="#000000" font-family="'Helvetica'" font-size="2.4">http://thenounproject.com</text><text transform="matrix(1 0 0 1 7.166 -24.5)" display="inline" fill="#000000" font-family="'Helvetica-Bold'" font-size="6.1578">The Noun Project</text><text transform="matrix(1 0 0 1 8.2861 -19.7002)" display="inline" fill="#000000" font-family="'Helvetica-Bold'" font-size="4">Icon Template</text><text transform="matrix(1 0 0 1 -178.5 10.5)" display="inline" fill="#000000" font-family="'Helvetica-Bold'" font-size="6.1578">Reminders</text><line display="inline" fill="#000000" stroke="#FFFFFF" stroke-miterlimit="10" x1="8" y1="-14.5" x2="18" y2="-14.5"></line><line display="inline" fill="#000000" stroke="#FFFFFF" stroke-miterlimit="10" x1="-179" y1="16.5" x2="-162" y2="16.5"></line><g display="inline"><g><g><rect x="-170.802" y="31.318" fill="#000000" width="8.721" height="8.642"></rect><path fill="#000000" d="M-164.455,42.312h4.747v-4.703h-4.747V42.312z M-159.266,42.749h-5.63V37.17h5.63V42.749      L-159.266,42.749z M-166.221,44.062h8.279v-8.203h-8.279V44.062L-166.221,44.062z M-157.5,44.5h-9.163v-9.079h9.163V44.5      L-157.5,44.5z"></path><polygon fill="#000000" points="-166.149,44.133 -166.292,43.991 -158.013,35.787 -157.871,35.929     "></polygon></g></g></g><rect x="-179" y="58" display="inline" fill="none" width="35" height="32.5"></rect><text transform="matrix(1 0 0 1 -179 60.1572)" display="inline" fill="#000000" font-family="'Helvetica-Bold'" font-size="3">Strokes</text><text transform="matrix(1 0 0 1 -179 65.1572)" display="inline" fill="#000000" font-family="'Helvetica'" font-size="2.4">Try to keep strokes at 4px</text><text transform="matrix(1 0 0 1 -179 70.1572)" display="inline" fill="#000000" font-family="'Helvetica'" font-size="2.4">Minimum stroke weight is 2px</text><text transform="matrix(1 0 0 1 -179 74.6572)" display="inline" fill="#000000" font-family="'Helvetica'" font-size="2.4">For thicker strokes use even </text><text transform="matrix(1 0 0 1 -179 77.6572)" display="inline" fill="#000000" font-family="'Helvetica'" font-size="2.4">numbers: 6px, 8px etc.</text><text transform="matrix(1 0 0 1 -179 82.1572)" display="inline" fill="#000000" font-family="'Helvetica-Bold'" font-size="2.4">Remember to expand strokes </text><text transform="matrix(1 0 0 1 -179 85.1572)" display="inline" fill="#000000" font-family="'Helvetica-Bold'" font-size="2.4">before saving as an SVG </text><rect x="-136.5" y="58" display="inline" fill="none" width="35" height="32.5"></rect><text transform="matrix(1 0 0 1 -136.5 60.1572)" display="inline" fill="#000000" font-family="'Helvetica-Bold'" font-size="3">Size</text><text transform="matrix(1 0 0 1 -136.5 65.1572)" display="inline" fill="#000000" font-family="'Helvetica'" font-size="2.4">Cannot be wider or taller than </text><text transform="matrix(1 0 0 1 -136.5 68.6572)" display="inline" fill="#000000" font-family="'Helvetica'" font-size="2.4">100px (artboard size)</text><text transform="matrix(1 0 0 1 -136.5 73.6572)" display="inline" fill="#000000" font-family="'Helvetica'" font-size="2.4">Scale your icon to fill as much of </text><text transform="matrix(1 0 0 1 -136.5 76.6572)" display="inline" fill="#000000" font-family="'Helvetica'" font-size="2.4">the artboard as possible</text><rect x="-94" y="58" display="inline" fill="none" width="35" height="32.5"></rect><text transform="matrix(1 0 0 1 -94 60.1572)" display="inline" fill="#000000" font-family="'Helvetica-Bold'" font-size="3">Ungroup</text><text transform="matrix(1 0 0 1 -94 65.1572)" display="inline" fill="#000000" font-family="'Helvetica'" font-size="2.4">If your design has more than one </text><text transform="matrix(1 0 0 1 -94 68.1572)" display="inline" fill="#000000" font-family="'Helvetica'" font-size="2.4">shape, make sure to ungroup</text><rect x="-50" y="58" display="inline" fill="none" width="35" height="32.5"></rect><text transform="matrix(1 0 0 1 -50 60.1572)" display="inline" fill="#000000" font-family="'Helvetica-Bold'" font-size="3">Save as</text><text transform="matrix(1 0 0 1 -50 65.1572)" display="inline" fill="#000000" font-family="'Helvetica'" font-size="2.4">Save as .SVG and make sure </text><text transform="matrix(1 0 0 1 -50 68.1572)" display="inline" fill="#000000" font-family="'Helvetica'" font-size="2.4">“Use Artboards” is checked</text><text transform="matrix(1.0074 0 0 1 -125.542 30.5938)" display="inline" fill="#000000" font-family="'Helvetica'" font-size="2.5731">100px</text><text transform="matrix(1.0074 0 0 1 -41 39)" display="inline" fill="#000000" font-family="'Helvetica-Bold'" font-size="5.1462">.SVG</text><rect x="-126.514" y="34.815" display="inline" fill="#000000" width="10.261" height="10.185"></rect><rect x="-126.477" y="31.766" display="inline" fill="#000000" width="0.522" height="2.337"></rect><rect x="-116.812" y="31.766" display="inline" fill="#000000" width="0.523" height="2.337"></rect><rect x="-127" y="32.337" display="inline" fill="#000000" width="11.233" height="0.572"></rect><g display="inline"><rect x="-83.805" y="33.844" fill="#000000" width="10.305" height="10.156"></rect><rect x="-76.809" y="28.707" fill="#000000" width="3.308" height="3.261"></rect></g><rect x="-178.5" y="22.5" display="inline" fill="#000000" stroke="#FFFFFF" stroke-miterlimit="10" width="30" height="30"></rect><rect x="-136.5" y="22.5" display="inline" fill="#000000" stroke="#FFFFFF" stroke-miterlimit="10" width="30" height="30"></rect><rect x="-93.5" y="22.5" display="inline" fill="#000000" stroke="#FFFFFF" stroke-miterlimit="10" width="30" height="30"></rect><rect x="-49.5" y="22.5" display="inline" fill="#000000" stroke="#FFFFFF" stroke-miterlimit="10" width="30" height="30"></rect></g><g><path d="M88.592,49.896l-1.298,1.27L87.1,50.967l1.297-1.271L88.592,49.896z M88.583,49.134l-1.276,1.304l-0.198-0.194l1.275-1.304   L88.583,49.134z M88.556,48.391l-1.251,1.319l-0.201-0.191l1.251-1.319L88.556,48.391z M88.515,47.631l-1.223,1.351l-0.205-0.187   l1.222-1.35L88.515,47.631z M88.46,46.873l-1.193,1.381l-0.21-0.181l1.193-1.382L88.46,46.873z M88.391,46.116l-1.17,1.396   l-0.212-0.178l1.169-1.397L88.391,46.116z M88.308,45.377l-1.145,1.41l-0.217-0.175l1.146-1.41L88.308,45.377z M88.206,44.622   l-1.114,1.439l-0.218-0.169l1.112-1.439L88.206,44.622z M88.091,43.871l-1.081,1.468l-0.225-0.165l1.083-1.467L88.091,43.871z    M87.963,43.122l-1.056,1.479l-0.227-0.16l1.055-1.48L87.963,43.122z M87.819,42.375l-1.027,1.507l-0.229-0.157l1.026-1.507   L87.819,42.375z M87.662,41.648l-0.999,1.518l-0.232-0.152l0.999-1.518L87.662,41.648z M87.487,40.908l-0.965,1.544l-0.235-0.147   l0.965-1.544L87.487,40.908z M87.299,40.171l-0.932,1.568l-0.239-0.141l0.932-1.569L87.299,40.171z M87.096,39.439l-0.902,1.578   l-0.241-0.138l0.901-1.578L87.096,39.439z M86.879,38.71l-0.872,1.602l-0.244-0.133l0.873-1.602L86.879,38.71z M86.65,38.003   l-0.843,1.609l-0.246-0.129l0.843-1.609L86.65,38.003z M86.403,37.283l-0.807,1.632l-0.25-0.123l0.808-1.632L86.403,37.283z    M86.143,36.569l-0.771,1.653l-0.252-0.117l0.771-1.653L86.143,36.569z M85.867,35.861l-0.742,1.66l-0.252-0.114l0.74-1.659   L85.867,35.861z M85.579,35.158l-0.709,1.68l-0.255-0.107l0.708-1.681L85.579,35.158z M85.283,34.476l-0.681,1.685l-0.257-0.104   l0.68-1.684L85.283,34.476z M84.964,33.786l-0.641,1.703l-0.26-0.098l0.642-1.703L84.964,33.786z M84.634,33.102l-0.604,1.719   l-0.262-0.092l0.604-1.72L84.634,33.102z M84.291,32.424l-0.575,1.723l-0.262-0.087l0.572-1.723L84.291,32.424z M83.933,31.752   l-0.537,1.74L83.13,33.41l0.538-1.739L83.933,31.752z M83.563,31.088l-0.502,1.756l-0.267-0.076l0.503-1.756L83.563,31.088z    M83.188,30.447l-0.473,1.757l-0.268-0.072l0.473-1.756L83.188,30.447z M82.79,29.8l-0.433,1.77l-0.271-0.066l0.434-1.769   L82.79,29.8z M82.381,29.16l-0.394,1.781l-0.271-0.061L82.11,29.1L82.381,29.16z M81.959,28.528l-0.364,1.781l-0.271-0.055   l0.365-1.781L81.959,28.528z M81.527,27.904l-0.329,1.793l-0.273-0.05l0.329-1.794L81.527,27.904z M81.09,27.302l-0.3,1.792   l-0.273-0.045l0.299-1.792L81.09,27.302z M80.631,26.696l-0.26,1.802l-0.274-0.041l0.26-1.802L80.631,26.696z M80.16,26.1   l-0.22,1.81l-0.275-0.034l0.22-1.81L80.16,26.1z M79.679,25.513l-0.188,1.805l-0.276-0.029l0.188-1.805L79.679,25.513z    M79.187,24.935l-0.152,1.814l-0.276-0.023l0.152-1.814L79.187,24.935z M78.683,24.366l-0.114,1.822l-0.276-0.018l0.113-1.822   L78.683,24.366z M78.177,23.82l-0.085,1.816l-0.276-0.013l0.084-1.816L78.177,23.82z M77.65,23.272l-0.044,1.82l-0.277-0.006   l0.044-1.82L77.65,23.272z M86.429,50.046c0,19.966-16.186,36.152-36.152,36.152c-19.965,0-36.151-16.187-36.151-36.152   c0-19.966,16.186-36.151,36.151-36.151C70.243,13.895,86.429,30.08,86.429,50.046 M77.113,22.735l-0.004,1.824l-0.277,0   l0.003-1.824L77.113,22.735z M76.592,24.026l-0.277,0.004l-0.026-1.816l0.277-0.004L76.592,24.026z M76.072,23.514l-0.277,0.009   l-0.063-1.821l0.278-0.009L76.072,23.514z M75.544,23.012l-0.276,0.014l-0.091-1.814l0.278-0.014L75.544,23.012z M75.007,22.52   l-0.276,0.02l-0.132-1.814l0.277-0.021L75.007,22.52z M74.46,22.037l-0.276,0.026l-0.172-1.813l0.275-0.026L74.46,22.037z    M73.905,21.564l-0.276,0.033l-0.213-1.812l0.276-0.032L73.905,21.564z M73.326,21.097l-0.274,0.036l-0.241-1.802l0.275-0.037   L73.326,21.097z M72.751,20.649l-0.274,0.043l-0.278-1.803l0.274-0.042L72.751,20.649z M72.168,20.213l-0.273,0.046l-0.306-1.792   l0.273-0.046L72.168,20.213z M71.576,19.788l-0.272,0.053l-0.346-1.788L71.229,18L71.576,19.788z M70.977,19.373l-0.271,0.059   l-0.386-1.781l0.271-0.059L70.977,19.373z M70.356,18.963l-0.271,0.062l-0.414-1.768l0.27-0.063L70.356,18.963z M69.739,18.574   l-0.269,0.069l-0.453-1.763l0.271-0.069L69.739,18.574z M69.116,18.197l-0.268,0.075l-0.491-1.759l0.267-0.075L69.116,18.197z    M68.486,17.833l-0.266,0.079L67.7,16.168l0.267-0.079L68.486,17.833z M67.849,17.479l-0.265,0.084l-0.56-1.733l0.265-0.084   L67.849,17.479z M67.204,17.138l-0.264,0.091l-0.598-1.724l0.263-0.092L67.204,17.138z M66.538,16.805L66.277,16.9l-0.622-1.708   l0.26-0.095L66.538,16.805z M65.219,14.792l0.661,1.7l-0.258,0.101l-0.661-1.7L65.219,14.792z M65.218,16.193l-0.257,0.105   l-0.687-1.683l0.257-0.104L65.218,16.193z M64.547,15.904l-0.254,0.111l-0.725-1.67l0.254-0.111L64.547,15.904z M63.873,15.628   l-0.253,0.117l-0.764-1.655l0.252-0.117L63.873,15.628z M63.179,15.363l-0.25,0.121l-0.789-1.637l0.249-0.121L63.179,15.363z    M62.492,15.117l-0.247,0.126l-0.826-1.625l0.247-0.126L62.492,15.117z M61.802,14.885l-0.244,0.13l-0.849-1.606l0.245-0.13   L61.802,14.885z M61.106,14.665l-0.241,0.136l-0.886-1.589l0.242-0.135L61.106,14.665z M59.484,12.887l0.925,1.571l-0.239,0.14   l-0.925-1.571L59.484,12.887z M59.692,14.263l-0.237,0.144l-0.946-1.549l0.237-0.146L59.692,14.263z M58.985,14.086l-0.234,0.15   l-0.982-1.535l0.233-0.15L58.985,14.086z M58.276,13.924l-0.231,0.153l-1.005-1.514l0.23-0.154L58.276,13.924z M57.563,13.774   l-0.228,0.159l-1.041-1.494l0.228-0.158L57.563,13.774z M56.848,13.637l-0.225,0.164l-1.077-1.472l0.226-0.164L56.848,13.637z    M56.114,13.514l-0.221,0.167l-1.099-1.449l0.222-0.167L56.114,13.514z M55.394,13.409l-0.218,0.172l-1.132-1.432l0.217-0.172   L55.394,13.409z M53.521,11.91l1.15,1.407l-0.214,0.175l-1.151-1.407L53.521,11.91z M53.947,13.238l-0.211,0.18l-1.186-1.382   l0.211-0.181L53.947,13.238z M53.223,13.172l-0.206,0.186l-1.221-1.358l0.206-0.185L53.223,13.172z M52.479,13.124l-0.203,0.188   l-1.237-1.336l0.204-0.189L52.479,13.124z M51.753,13.09l-0.2,0.191l-1.254-1.313l0.2-0.191L51.753,13.09z M49.739,11.78   l1.287,1.287l-0.196,0.196l-1.287-1.287L49.739,11.78z M50.298,13.059l-0.192,0.2L48.786,12l0.191-0.201L50.298,13.059z    M49.553,13.066l-0.188,0.203l-1.335-1.235l0.188-0.204L49.553,13.066z M48.827,13.089l-0.186,0.207l-1.351-1.212l0.186-0.207   L48.827,13.089z M48.099,13.125l-0.181,0.211l-1.38-1.184l0.18-0.21L48.099,13.125z M47.372,13.173l-0.175,0.214l-1.411-1.154   l0.175-0.215L47.372,13.173z M46.631,13.237l-0.172,0.217l-1.424-1.126l0.172-0.217L46.631,13.237z M45.908,13.317l-0.167,0.221   l-1.454-1.1l0.167-0.221L45.908,13.317z M45.186,13.411l-0.164,0.224l-1.466-1.073l0.164-0.224L45.186,13.411z M44.466,13.516   l-0.159,0.228l-1.493-1.041l0.159-0.228L44.466,13.516z M43.748,13.635l-0.154,0.231l-1.521-1.008l0.154-0.23L43.748,13.635z    M43.016,13.773l-0.15,0.234l-1.53-0.98l0.15-0.233L43.016,13.773z M42.304,13.924l-0.145,0.236l-1.557-0.95l0.145-0.237   L42.304,13.924z M41.594,14.088l-0.14,0.239l-1.566-0.922l0.14-0.239L41.594,14.088z M40.888,14.265l-0.135,0.242l-1.59-0.888   l0.135-0.242L40.888,14.265z M40.185,14.455l-0.13,0.246l-1.612-0.852l0.129-0.246L40.185,14.455z M37.851,13.843l1.62,0.823   l-0.125,0.248l-1.621-0.823L37.851,13.843z M38.777,14.886l-0.12,0.25l-1.644-0.791l0.12-0.249L38.777,14.886z M38.088,15.12   l-0.117,0.252l-1.65-0.762l0.116-0.252L38.088,15.12z M37.401,15.366l-0.11,0.254l-1.669-0.725l0.11-0.255L37.401,15.366z    M36.721,15.625l-0.104,0.257l-1.689-0.688l0.104-0.257L36.721,15.625z M34.339,15.247l1.693,0.658l-0.101,0.259l-1.693-0.657   L34.339,15.247z M35.362,16.194l-0.095,0.261l-1.712-0.624l0.095-0.261L35.362,16.194z M34.7,16.495l-0.091,0.262l-1.716-0.596   l0.091-0.262L34.7,16.495z M32.31,16.251l1.732,0.558l-0.085,0.264l-1.732-0.558L32.31,16.251z M33.39,17.134L33.311,17.4   l-1.746-0.52l0.079-0.266L33.39,17.134z M32.731,17.48l-0.075,0.267l-1.748-0.487l0.075-0.268L32.731,17.48z M32.094,17.834   l-0.069,0.268l-1.762-0.452l0.069-0.269L32.094,17.834z M31.464,18.199l-0.063,0.27l-1.777-0.416l0.063-0.271L31.464,18.199z    M29.065,18.191l1.776,0.386l-0.059,0.271l-1.776-0.386L29.065,18.191z M30.225,18.966l-0.053,0.272l-1.787-0.347l0.053-0.272   L30.225,18.966z M29.615,19.367l-0.047,0.273l-1.797-0.306l0.046-0.274L29.615,19.367z M29.003,19.789l-0.042,0.275l-1.795-0.277   l0.042-0.274L29.003,19.789z M28.412,20.216l-0.036,0.274l-1.806-0.24l0.036-0.275L28.412,20.216z M27.83,20.653l-0.033,0.275   l-1.803-0.212l0.032-0.275L27.83,20.653z M27.255,21.102l-0.026,0.275l-1.811-0.172l0.026-0.275L27.255,21.102z M26.688,21.56   l-0.021,0.277l-1.817-0.132l0.021-0.277L26.688,21.56z M26.13,22.029l-0.013,0.277l-1.822-0.091l0.014-0.277L26.13,22.029z    M25.572,22.522l-0.009,0.277l-1.817-0.063l0.009-0.278L25.572,22.522z M25.036,23.015l-0.003,0.277l-1.823-0.025l0.003-0.277   L25.036,23.015z M24.509,23.518l0.001,0.277l-1.818,0.003l0-0.277L24.509,23.518z M23.99,24.03l0.007,0.277l-1.819,0.044   l-0.007-0.277L23.99,24.03z M23.481,24.552l0.013,0.277l-1.82,0.085l-0.013-0.278L23.481,24.552z M22.973,25.096l0.018,0.276   l-1.811,0.114l-0.018-0.277L22.973,25.096z M22.487,25.639l0.023,0.277l-1.814,0.152l-0.022-0.277L22.487,25.639z M22.012,26.192   l0.029,0.276l-1.815,0.189l-0.029-0.275L22.012,26.192z M21.547,26.752l0.034,0.275l-1.805,0.219l-0.034-0.275L21.547,26.752z    M21.093,27.323l0.04,0.275l-1.802,0.259l-0.04-0.274L21.093,27.323z M20.648,27.9l0.046,0.273l-1.798,0.301l-0.046-0.273   L20.648,27.9z M20.208,28.5l0.05,0.273l-1.787,0.328l-0.05-0.273L20.208,28.5z M18.006,29.463l1.784-0.366l0.056,0.271   l-1.785,0.366L18.006,29.463z M19.383,29.702l0.061,0.271l-1.774,0.392l-0.061-0.271L19.383,29.702z M18.988,30.313l0.066,0.27   l-1.767,0.433l-0.066-0.27L18.988,30.313z M18.603,30.933l0.071,0.269l-1.759,0.473l-0.071-0.268L18.603,30.933z M18.223,31.572   l0.077,0.267l-1.744,0.5l-0.077-0.267L18.223,31.572z M17.866,32.208l0.082,0.265l-1.738,0.539l-0.082-0.265L17.866,32.208z    M17.521,32.849l0.087,0.263l-1.731,0.577l-0.087-0.263L17.521,32.849z M17.188,33.497l0.092,0.262l-1.715,0.603L15.473,34.1   L17.188,33.497z M15.164,34.793l1.703-0.642l0.098,0.259l-1.704,0.643L15.164,34.793z M16.558,34.812l0.104,0.257L14.97,35.75   l-0.104-0.257L16.558,34.812z M16.258,35.493l0.108,0.256l-1.674,0.706l-0.108-0.256L16.258,35.493z M14.314,36.909l1.665-0.744   l0.112,0.253l-1.664,0.745L14.314,36.909z M15.712,36.842l0.118,0.251l-1.647,0.768l-0.118-0.251L15.712,36.842z M15.458,37.525   l0.123,0.249l-1.631,0.807l-0.123-0.249L15.458,37.525z M13.602,39.058l1.615-0.845l0.129,0.245l-1.616,0.846L13.602,39.058z    M14.985,38.92l0.133,0.243l-1.595,0.869l-0.133-0.243L14.985,38.92z M14.774,39.617l0.138,0.241l-1.582,0.906l-0.138-0.241   L14.774,39.617z M13.015,41.245l1.561-0.927l0.142,0.238l-1.562,0.927L13.015,41.245z M12.848,41.986l1.543-0.964l0.147,0.236   l-1.543,0.964L12.848,41.986z M12.696,42.732l1.524-1.002l0.152,0.231l-1.523,1.002L12.696,42.732z M14.06,42.457l0.157,0.229   l-1.501,1.023l-0.156-0.229L14.06,42.457z M12.434,44.229l1.485-1.059l0.161,0.226l-1.485,1.06L12.434,44.229z M12.33,44.967   l1.462-1.08l0.165,0.223l-1.463,1.079L12.33,44.967z M13.677,44.606l0.17,0.22l-1.439,1.115l-0.17-0.219L13.677,44.606z    M12.159,46.478l1.417-1.15l0.174,0.215l-1.417,1.149L12.159,46.478z M12.096,47.235l1.395-1.168l0.178,0.213l-1.395,1.168   L12.096,47.235z M12.047,47.977l1.374-1.187L13.602,47l-1.373,1.187L12.047,47.977z M12.015,48.737l1.349-1.22l0.187,0.205   l-1.349,1.221L12.015,48.737z M11.997,49.498l1.324-1.254l0.19,0.202l-1.323,1.253L11.997,49.498z M11.993,50.257l1.297-1.271   l0.194,0.199l-1.297,1.27L11.993,50.257z M12.002,51.02l1.276-1.305l0.199,0.194L12.2,51.213L12.002,51.02z M12.028,51.762   l1.25-1.319l0.202,0.19l-1.251,1.32L12.028,51.762z M12.069,52.521l1.223-1.351l0.206,0.186l-1.222,1.352L12.069,52.521z    M12.124,53.28l1.193-1.382l0.21,0.181l-1.193,1.382L12.124,53.28z M12.193,54.037l1.17-1.396l0.213,0.179l-1.17,1.396   L12.193,54.037z M12.276,54.775l1.145-1.409l0.215,0.175l-1.145,1.409L12.276,54.775z M12.378,55.53l1.114-1.439l0.219,0.17   L12.598,55.7L12.378,55.53z M12.493,56.281l1.083-1.467l0.223,0.165l-1.083,1.467L12.493,56.281z M12.623,57.03l1.054-1.479   l0.226,0.16l-1.054,1.479L12.623,57.03z M12.766,57.778l1.026-1.508l0.229,0.156l-1.026,1.507L12.766,57.778z M12.923,58.505   l0.998-1.519l0.232,0.152l-0.998,1.519L12.923,58.505z M13.097,59.245l0.966-1.544l0.235,0.146l-0.966,1.544L13.097,59.245z    M13.286,59.981l0.931-1.569l0.238,0.142l-0.931,1.569L13.286,59.981z M13.489,60.714l0.903-1.578l0.24,0.138l-0.903,1.577   L13.489,60.714z M13.706,61.442l0.872-1.603l0.244,0.133l-0.872,1.602L13.706,61.442z M13.934,62.149l0.842-1.609l0.246,0.129   l-0.843,1.61L13.934,62.149z M14.182,62.869l0.807-1.631l0.249,0.123l-0.807,1.631L14.182,62.869z M14.442,63.583l0.771-1.653   l0.251,0.118L14.694,63.7L14.442,63.583z M14.717,64.291l0.742-1.658l0.253,0.113l-0.742,1.658L14.717,64.291z M15.005,64.995   l0.708-1.68l0.256,0.107l-0.708,1.68L15.005,64.995z M15.303,65.676l0.679-1.684l0.257,0.104L15.56,65.78L15.303,65.676z    M15.62,66.368l0.642-1.704l0.26,0.098l-0.643,1.703L15.62,66.368z M15.951,67.052l0.604-1.72l0.261,0.092l-0.603,1.719   L15.951,67.052z M16.294,67.729l0.573-1.724l0.263,0.088l-0.574,1.723L16.294,67.729z M16.651,68.399l0.538-1.738l0.265,0.081   l-0.538,1.739L16.651,68.399z M17.021,69.064l0.503-1.756l0.267,0.076l-0.503,1.756L17.021,69.064z M17.397,69.705l0.472-1.756   l0.269,0.071l-0.473,1.757L17.397,69.705z M17.794,70.354l0.433-1.771l0.269,0.066l-0.433,1.77L17.794,70.354z M18.203,70.993   l0.394-1.781l0.271,0.061l-0.394,1.78L18.203,70.993z M18.625,71.624l0.366-1.779l0.271,0.055l-0.365,1.781L18.625,71.624z    M19.058,72.249l0.328-1.794l0.273,0.05l-0.328,1.794L19.058,72.249z M19.495,72.851l0.299-1.792l0.274,0.046l-0.299,1.792   L19.495,72.851z M19.954,73.457l0.259-1.802l0.275,0.04l-0.26,1.801L19.954,73.457z M20.425,74.053l0.218-1.81l0.275,0.034   l-0.219,1.809L20.425,74.053z M20.906,74.64l0.188-1.806l0.276,0.029l-0.189,1.806L20.906,74.64z M21.398,75.218l0.151-1.813   l0.277,0.023l-0.151,1.813L21.398,75.218z M21.901,75.786l0.114-1.821l0.277,0.018l-0.114,1.821L21.901,75.786z M22.407,76.332   l0.085-1.816l0.277,0.013l-0.084,1.817L22.407,76.332z M22.935,76.88l0.043-1.82l0.277,0.006l-0.043,1.82L22.935,76.88z    M23.472,77.417l0.003-1.823l0.278,0.001l-0.003,1.822H23.472z M23.993,76.127l0.277-0.004l0.025,1.816l-0.277,0.003L23.993,76.127   z M24.512,76.639l0.277-0.01l0.063,1.822l-0.277,0.008L24.512,76.639z M25.04,77.14l0.277-0.013l0.09,1.813l-0.277,0.014   L25.04,77.14z M25.578,77.634l0.277-0.021l0.131,1.813l-0.277,0.021L25.578,77.634z M26.125,78.115L26.4,78.09l0.172,1.813   l-0.275,0.024L26.125,78.115z M26.68,78.588l0.275-0.033l0.213,1.812l-0.276,0.033L26.68,78.588z M27.258,79.056l0.275-0.037   l0.24,1.802l-0.275,0.037L27.258,79.056z M27.834,79.503l0.274-0.043l0.278,1.804l-0.275,0.042L27.834,79.503z M28.417,79.938   l0.274-0.045l0.305,1.791l-0.273,0.047L28.417,79.938z M29.009,80.365l0.272-0.053l0.345,1.786l-0.272,0.053L29.009,80.365z    M29.995,82.562l-0.387-1.782l0.271-0.059l0.388,1.782L29.995,82.562z M30.228,81.19l0.271-0.063l0.414,1.768l-0.27,0.062   L30.228,81.19z M30.845,81.579l0.269-0.069l0.454,1.763l-0.269,0.07L30.845,81.579z M31.469,81.955l0.268-0.074l0.491,1.759   l-0.268,0.075L31.469,81.955z M32.618,84.062L32.1,82.319l0.266-0.079l0.518,1.744L32.618,84.062z M32.737,82.673l0.264-0.084   l0.559,1.733l-0.264,0.084L32.737,82.673z M33.381,83.015l0.262-0.091l0.598,1.723l-0.262,0.092L33.381,83.015z M34.046,83.347   l0.261-0.095l0.624,1.708l-0.261,0.095L34.046,83.347z M34.705,83.66l0.258-0.102l0.661,1.7l-0.258,0.101L34.705,83.66z    M35.368,83.959l0.257-0.104l0.686,1.684l-0.256,0.104L35.368,83.959z M36.038,84.248l0.253-0.11l0.726,1.669l-0.254,0.111   L36.038,84.248z M36.712,84.523l0.252-0.117l0.764,1.656l-0.252,0.116L36.712,84.523z M38.195,86.426l-0.789-1.637l0.25-0.12   l0.788,1.636L38.195,86.426z M38.093,85.034l0.247-0.124l0.825,1.625l-0.247,0.125L38.093,85.034z M38.782,85.266l0.246-0.129   l0.849,1.606l-0.246,0.13L38.782,85.266z M39.478,85.487l0.242-0.136l0.887,1.589l-0.242,0.136L39.478,85.487z M40.175,85.693   l0.239-0.14l0.925,1.57L41.1,87.265L40.175,85.693z M40.893,85.89l0.237-0.145l0.946,1.55l-0.236,0.145L40.893,85.89z M41.6,86.065   l0.233-0.148l0.983,1.534l-0.233,0.149L41.6,86.065z M42.309,86.228l0.231-0.153l1.004,1.515l-0.231,0.153L42.309,86.228z    M43.021,86.378l0.228-0.159l1.041,1.494l-0.228,0.158L43.021,86.378z M43.737,86.515l0.224-0.164l1.078,1.473l-0.224,0.163   L43.737,86.515z M44.472,86.638l0.22-0.166l1.097,1.448l-0.22,0.167L44.472,86.638z M45.191,86.743l0.217-0.173l1.132,1.432   l-0.218,0.173L45.191,86.743z M45.913,86.834l0.215-0.175l1.152,1.407l-0.215,0.176L45.913,86.834z M46.636,86.913l0.211-0.18   l1.186,1.384l-0.21,0.18L46.636,86.913z M47.362,86.98l0.206-0.186l1.221,1.357l-0.207,0.186L47.362,86.98z M48.104,87.028   l0.204-0.188l1.237,1.336l-0.203,0.188L48.104,87.028z M48.831,87.062l0.201-0.19l1.253,1.313l-0.2,0.19L48.831,87.062z    M49.626,87.138l0.192-0.2l1.32,1.26l-0.191,0.201L49.626,87.138z M50.285,87.093l0.192-0.2l1.32,1.26l-0.192,0.201L50.285,87.093z    M51.029,87.085l0.188-0.203l1.335,1.236l-0.187,0.203L51.029,87.085z M51.757,87.062l0.185-0.206l1.352,1.212l-0.186,0.207   L51.757,87.062z M52.484,87.027l0.18-0.211l1.382,1.185l-0.181,0.21L52.484,87.027z M53.211,86.979l0.176-0.214l1.411,1.153   l-0.176,0.214L53.211,86.979z M53.952,86.914l0.172-0.216l1.424,1.125l-0.172,0.218L53.952,86.914z M54.676,86.835l0.167-0.221   l1.454,1.1l-0.168,0.221L54.676,86.835z M55.397,86.742l0.163-0.224l1.466,1.072l-0.163,0.224L55.397,86.742z M56.117,86.636   l0.159-0.228l1.492,1.042l-0.157,0.227L56.117,86.636z M56.837,86.517l0.153-0.231l1.521,1.008l-0.154,0.231L56.837,86.517z    M57.566,86.379l0.15-0.233l1.53,0.979l-0.148,0.234L57.566,86.379z M58.28,86.228l0.145-0.235l1.557,0.949l-0.146,0.237   L58.28,86.228z M58.989,86.063l0.14-0.238l1.566,0.922l-0.142,0.239L58.989,86.063z M59.695,85.888l0.137-0.243l1.589,0.888   l-0.136,0.242L59.695,85.888z M60.399,85.698l0.13-0.246l1.612,0.852l-0.13,0.245L60.399,85.698z M61.113,85.487l0.124-0.248   l1.621,0.823l-0.126,0.247L61.113,85.487z M61.807,85.266l0.121-0.25l1.643,0.791l-0.12,0.25L61.807,85.266z M62.495,85.032   l0.117-0.253l1.65,0.763l-0.117,0.253L62.495,85.032z M63.182,84.786l0.111-0.255l1.67,0.725l-0.111,0.255L63.182,84.786z    M65.551,85.215l-1.688-0.688l0.105-0.258l1.688,0.688L65.551,85.215z M64.552,84.246l0.1-0.258l1.694,0.658l-0.102,0.259   L64.552,84.246z M65.221,83.959l0.095-0.261l1.713,0.623l-0.096,0.262L65.221,83.959z M65.884,83.658l0.091-0.263l1.716,0.596   l-0.09,0.262L65.884,83.658z M66.542,83.344l0.086-0.265l1.73,0.559l-0.085,0.264L66.542,83.344z M68.939,83.537l-1.746-0.519   l0.079-0.267l1.746,0.52L68.939,83.537z M67.853,82.672l0.074-0.268l1.747,0.488l-0.075,0.267L67.853,82.672z M68.489,82.318   l0.069-0.269l1.763,0.451l-0.069,0.27L68.489,82.318z M69.119,81.952l0.064-0.271l1.776,0.417l-0.062,0.271L69.119,81.952z    M69.742,81.575l0.06-0.271l1.775,0.385l-0.059,0.271L69.742,81.575z M70.359,81.186l0.054-0.271l1.786,0.346l-0.054,0.273   L70.359,81.186z M70.969,80.785l0.046-0.272l1.799,0.307l-0.047,0.274L70.969,80.785z M71.58,80.363l0.043-0.274l1.795,0.277   l-0.042,0.273L71.58,80.363z M72.171,79.937l0.037-0.274l1.807,0.239l-0.037,0.274L72.171,79.937z M72.753,79.5l0.033-0.275   l1.805,0.212l-0.032,0.275L72.753,79.5z M73.329,79.051l0.025-0.275l1.812,0.172l-0.025,0.276L73.329,79.051z M73.896,78.592   l0.02-0.276l1.817,0.132l-0.02,0.276L73.896,78.592z M74.454,78.122l0.014-0.276l1.821,0.092l-0.014,0.277L74.454,78.122z    M75.011,77.632l0.01-0.278l1.817,0.062l-0.01,0.278L75.011,77.632z M75.547,77.139l0.005-0.278l1.823,0.024l-0.004,0.277   L75.547,77.139z M76.075,76.635v-0.277l1.816-0.003v0.277L76.075,76.635z M76.594,76.122l-0.008-0.277l1.819-0.043l0.008,0.277   L76.594,76.122z M78.923,75.517L77.102,75.6l-0.012-0.277l1.82-0.083L78.923,75.517z M77.61,75.056l-0.018-0.276l1.812-0.113   l0.018,0.278L77.61,75.056z M78.096,74.513l-0.023-0.276l1.815-0.152l0.022,0.278L78.096,74.513z M80.388,73.771l-1.815,0.19   l-0.029-0.276l1.815-0.19L80.388,73.771z M79.036,73.4l-0.033-0.275l1.805-0.219l0.033,0.275L79.036,73.4z M79.491,72.83   l-0.039-0.274l1.802-0.26l0.039,0.274L79.491,72.83z M79.936,72.252l-0.046-0.274l1.799-0.3l0.045,0.274L79.936,72.252z    M80.375,71.652l-0.05-0.273l1.787-0.328l0.05,0.273L80.375,71.652z M80.794,71.055l-0.057-0.271l1.785-0.365l0.057,0.271   L80.794,71.055z M81.199,70.45l-0.06-0.271l1.774-0.392l0.059,0.271L81.199,70.45z M81.596,69.839l-0.065-0.27l1.767-0.433   l0.065,0.271L81.596,69.839z M81.98,69.22l-0.071-0.268l1.759-0.474l0.072,0.268L81.98,69.22z M82.36,68.58l-0.076-0.267l1.744-0.5   l0.076,0.267L82.36,68.58z M84.456,67.406l-1.737,0.538l-0.083-0.264l1.738-0.539L84.456,67.406z M83.063,67.303l-0.088-0.262   l1.731-0.578l0.087,0.264L83.063,67.303z M83.396,66.655l-0.092-0.261l1.715-0.604l0.093,0.262L83.396,66.655z M83.717,66   l-0.098-0.259l1.704-0.642l0.098,0.259L83.717,66z M84.026,65.341l-0.104-0.257l1.691-0.682l0.104,0.257L84.026,65.341z M86,63.954   l-1.674,0.706l-0.108-0.255l1.675-0.707L86,63.954z M84.604,63.987l-0.112-0.253l1.664-0.744l0.113,0.253L84.604,63.987z    M86.518,62.543l-1.646,0.767l-0.118-0.251l1.646-0.768L86.518,62.543z M86.757,61.82l-1.631,0.808l-0.123-0.25l1.631-0.807   L86.757,61.82z M85.368,61.939l-0.13-0.245l1.615-0.846l0.129,0.245L85.368,61.939z M85.599,61.232l-0.133-0.242l1.595-0.869   l0.133,0.243L85.599,61.232z M87.392,59.63l-1.582,0.905l-0.139-0.24l1.583-0.905L87.392,59.63z M86.008,59.835l-0.142-0.238   l1.562-0.928l0.141,0.238L86.008,59.835z M87.735,58.166l-1.543,0.965l-0.146-0.235l1.543-0.965L87.735,58.166z M87.888,57.421   l-1.522,1.003l-0.153-0.232l1.523-1.003L87.888,57.421z M86.524,57.695l-0.157-0.229l1.502-1.022l0.155,0.229L86.524,57.695z    M88.149,55.923l-1.484,1.059l-0.161-0.225l1.485-1.06L88.149,55.923z M86.792,56.266l-0.164-0.224l1.462-1.077l0.164,0.222   L86.792,56.266z M88.347,54.432l-1.439,1.114l-0.171-0.22l1.44-1.114L88.347,54.432z M88.425,53.674l-1.416,1.151l-0.176-0.216   l1.417-1.149L88.425,53.674z M88.488,52.918l-1.394,1.167l-0.179-0.212l1.394-1.168L88.488,52.918z M87.163,53.362l-0.182-0.21   l1.374-1.187l0.182,0.209L87.163,53.362z M88.568,51.415l-1.348,1.221l-0.188-0.205l1.35-1.221L88.568,51.415z M87.265,51.909   l-0.191-0.202l1.322-1.254l0.191,0.202L87.265,51.909z M93.467,49.102l0.738-0.025l-0.038-1.083l-0.738,0.025   c-0.008-0.163-0.015-0.327-0.024-0.489l0.433-0.03l-0.053-0.742l-0.431,0.03c-0.012-0.162-0.025-0.323-0.04-0.484l0.728-0.063   l-0.095-1.079l-0.74,0.064c-0.034-0.302-0.065-0.604-0.105-0.904l0.42-0.06l-0.104-0.736l-0.423,0.06   c-0.025-0.162-0.051-0.323-0.076-0.485l0.719-0.126l-0.188-1.067l-0.719,0.127c-0.03-0.161-0.062-0.322-0.094-0.482l0.417-0.088   l-0.154-0.728l-0.415,0.088c-0.035-0.159-0.07-0.316-0.107-0.475l0.704-0.162l-0.243-1.055L92.121,39.3   c-0.076-0.295-0.149-0.59-0.231-0.882l0.401-0.115l-0.206-0.715l-0.4,0.115c-0.047-0.158-0.096-0.313-0.145-0.47l0.686-0.222   l-0.334-1.03l-0.687,0.223c-0.053-0.155-0.104-0.311-0.157-0.465l0.39-0.142l-0.253-0.699l-0.392,0.143   c-0.056-0.152-0.112-0.303-0.171-0.455l0.666-0.256l-0.389-1.011l-0.679,0.26c-0.117-0.28-0.234-0.561-0.356-0.839l0.378-0.168   l-0.303-0.679l-0.382,0.17c-0.068-0.149-0.137-0.298-0.207-0.446l0.648-0.316l-0.475-0.973l-0.651,0.317   c-0.072-0.146-0.146-0.292-0.221-0.438l0.37-0.196l-0.351-0.657l-0.368,0.197c-0.078-0.143-0.156-0.284-0.235-0.426l0.629-0.348   l-0.525-0.947l-0.642,0.355c-0.154-0.262-0.307-0.525-0.465-0.783l0.351-0.219l-0.394-0.631l-0.354,0.22   c-0.088-0.137-0.178-0.274-0.268-0.411l0.598-0.402l-0.606-0.898l-0.597,0.403c-0.093-0.135-0.188-0.268-0.283-0.4l0.338-0.247   l-0.437-0.602l-0.338,0.246c-0.096-0.13-0.192-0.26-0.289-0.39l0.571-0.431l-0.652-0.865l-0.582,0.438   c-0.189-0.238-0.381-0.474-0.574-0.708l0.317-0.267l-0.478-0.57l-0.318,0.268c-0.107-0.124-0.215-0.247-0.322-0.37l0.535-0.482   L82.56,20.28l-0.535,0.482c-0.112-0.121-0.223-0.242-0.334-0.36l0.299-0.289l-0.517-0.535l-0.299,0.289   c-0.113-0.116-0.227-0.232-0.342-0.346l0.505-0.504l-0.767-0.766l-0.514,0.513c-0.22-0.208-0.44-0.417-0.665-0.623l0.274-0.305   l-0.552-0.499l-0.274,0.305c-0.123-0.108-0.247-0.214-0.371-0.321l0.459-0.548l-0.83-0.696l-0.458,0.545   c-0.126-0.104-0.255-0.205-0.383-0.306l0.253-0.325l-0.586-0.458l-0.249,0.319c-0.129-0.099-0.26-0.195-0.389-0.292l0.425-0.564   l-0.864-0.652l-0.433,0.574c-0.248-0.177-0.495-0.355-0.745-0.527l0.225-0.331l-0.618-0.416l-0.226,0.336   c-0.137-0.09-0.272-0.181-0.411-0.27l0.374-0.599l-0.918-0.574l-0.375,0.6c-0.14-0.085-0.277-0.172-0.419-0.255l0.2-0.347   l-0.645-0.372l-0.199,0.345c-0.142-0.08-0.282-0.159-0.424-0.238l0.338-0.61l-0.947-0.525L70.28,11.76   c-0.27-0.142-0.538-0.285-0.811-0.421l0.171-0.35l-0.669-0.326l-0.169,0.347c-0.148-0.07-0.296-0.139-0.446-0.208l0.28-0.629   l-0.988-0.441l-0.281,0.63c-0.149-0.065-0.3-0.131-0.451-0.194l0.144-0.355l-0.688-0.278l-0.146,0.358   c-0.149-0.06-0.3-0.122-0.452-0.18l0.245-0.635l-1.011-0.389l-0.251,0.652c-0.287-0.103-0.572-0.209-0.86-0.305l0.116-0.357   l-0.708-0.23l-0.116,0.359c-0.157-0.049-0.312-0.099-0.471-0.146l0.188-0.653l-1.041-0.298l-0.188,0.653   c-0.157-0.043-0.316-0.084-0.476-0.126l0.092-0.366l-0.723-0.18l-0.09,0.365c-0.158-0.038-0.316-0.077-0.474-0.112l0.151-0.657   l-1.056-0.244l-0.154,0.669c-0.298-0.06-0.597-0.118-0.897-0.173l0.065-0.368l-0.731-0.129l-0.066,0.373   c-0.162-0.027-0.323-0.055-0.486-0.08l0.096-0.673l-1.073-0.15l-0.096,0.673c-0.162-0.021-0.325-0.038-0.488-0.056l0.04-0.379   L54.57,6.672l-0.039,0.376c-0.161-0.016-0.323-0.029-0.485-0.043l0.06-0.676l-1.08-0.094l-0.06,0.69   c-0.303-0.018-0.607-0.03-0.912-0.043L52.066,6.5l-0.743-0.026l-0.013,0.384c-0.163-0.004-0.329-0.006-0.492-0.008V6.161h-1.083   v0.686c-0.163,0.002-0.328,0.002-0.492,0.006l-0.013-0.38L48.487,6.5L48.5,6.881c-0.162,0.007-0.324,0.013-0.486,0.022   l-0.035-0.679l-1.082,0.057l0.036,0.693c-0.305,0.023-0.607,0.049-0.909,0.079l-0.041-0.376l-0.739,0.078l0.039,0.377   c-0.163,0.019-0.326,0.04-0.488,0.061l-0.095-0.677l-1.072,0.151l0.094,0.675c-0.162,0.024-0.323,0.053-0.485,0.08l-0.066-0.375   l-0.732,0.129l0.065,0.37c-0.16,0.029-0.318,0.063-0.478,0.094l-0.129-0.666L40.834,7.18l0.132,0.678   c-0.297,0.066-0.595,0.132-0.891,0.204l-0.09-0.363l-0.721,0.179l0.091,0.368c-0.159,0.042-0.317,0.083-0.475,0.127l-0.188-0.655   l-1.041,0.298l0.188,0.658c-0.157,0.047-0.314,0.095-0.469,0.145l-0.119-0.363l-0.708,0.23l0.118,0.363   C36.508,9.1,36.353,9.149,36.2,9.202l-0.221-0.642l-1.024,0.354l0.226,0.656c-0.285,0.107-0.57,0.216-0.852,0.329l-0.143-0.354   l-0.69,0.278l0.144,0.355c-0.151,0.063-0.301,0.129-0.452,0.195l-0.28-0.629l-0.99,0.44l0.28,0.63   c-0.148,0.07-0.296,0.14-0.444,0.21l-0.171-0.349l-0.668,0.326l0.169,0.348c-0.145,0.073-0.288,0.147-0.432,0.222l-0.313-0.613   l-0.965,0.492l0.319,0.627c-0.267,0.146-0.535,0.29-0.798,0.441l-0.194-0.335l-0.645,0.372l0.192,0.333   c-0.142,0.083-0.279,0.172-0.419,0.258l-0.367-0.587l-0.918,0.573l0.367,0.588c-0.138,0.089-0.275,0.179-0.412,0.269l-0.219-0.324   l-0.617,0.416l0.221,0.328c-0.134,0.092-0.269,0.181-0.402,0.274l-0.396-0.565l-0.887,0.621l0.407,0.582   c-0.244,0.182-0.492,0.358-0.732,0.544l-0.24-0.307l-0.586,0.458l0.24,0.308c-0.128,0.102-0.253,0.208-0.38,0.312l-0.448-0.535   l-0.83,0.697l0.45,0.536c-0.123,0.107-0.249,0.213-0.371,0.322l-0.265-0.294l-0.552,0.498l0.266,0.294   c-0.12,0.109-0.24,0.218-0.358,0.329l-0.474-0.507l-0.792,0.739l0.484,0.519c-0.217,0.214-0.433,0.428-0.646,0.646l-0.284-0.274   l-0.517,0.535l0.287,0.277c-0.112,0.119-0.225,0.238-0.335,0.358l-0.521-0.469l-0.725,0.805l0.521,0.469   c-0.108,0.124-0.211,0.25-0.318,0.375l-0.309-0.259l-0.478,0.57L17,22.515c-0.104,0.125-0.203,0.253-0.305,0.38l-0.543-0.441   l-0.682,0.842l0.553,0.448c-0.185,0.241-0.371,0.482-0.55,0.727l-0.321-0.232l-0.437,0.601l0.322,0.235   c-0.095,0.134-0.188,0.268-0.282,0.403l-0.583-0.393l-0.605,0.898l0.583,0.394c-0.09,0.137-0.18,0.273-0.269,0.412l-0.338-0.212   l-0.394,0.631l0.337,0.211c-0.085,0.138-0.168,0.277-0.252,0.416l-0.597-0.359l-0.558,0.928l0.609,0.366   c-0.151,0.265-0.303,0.528-0.447,0.796l-0.346-0.184l-0.349,0.657l0.347,0.184c-0.075,0.146-0.153,0.29-0.227,0.437l-0.622-0.303   l-0.475,0.973l0.626,0.305c-0.071,0.149-0.144,0.295-0.212,0.444l-0.355-0.158l-0.302,0.68l0.36,0.16   c-0.065,0.149-0.131,0.297-0.195,0.445l-0.635-0.269l-0.423,0.998l0.65,0.275c-0.112,0.283-0.227,0.564-0.333,0.851L9.39,34.926   l-0.254,0.699l0.363,0.131c-0.054,0.155-0.104,0.312-0.156,0.467l-0.66-0.214l-0.334,1.03L9,37.251   c-0.048,0.156-0.088,0.316-0.135,0.473l-0.376-0.107l-0.205,0.715l0.376,0.107c-0.043,0.157-0.092,0.311-0.133,0.468l-0.662-0.177   l-0.279,1.046l0.683,0.183c-0.071,0.296-0.148,0.589-0.213,0.887l-0.377-0.08l-0.154,0.728l0.38,0.081   c-0.032,0.161-0.062,0.322-0.092,0.483l-0.683-0.12l-0.188,1.067l0.685,0.121c-0.026,0.162-0.053,0.323-0.077,0.485l-0.388-0.054   l-0.104,0.736l0.391,0.054c-0.021,0.161-0.043,0.321-0.062,0.482l-0.687-0.084L6.566,45.82l0.703,0.085   c-0.028,0.302-0.055,0.605-0.078,0.909l-0.394-0.027l-0.052,0.742l0.399,0.028c-0.009,0.163-0.019,0.327-0.025,0.491l-0.704-0.024   l-0.038,1.083l0.706,0.024c-0.003,0.164-0.005,0.328-0.007,0.491H6.672v0.744h0.404c0.001,0.163,0.005,0.324,0.009,0.486   L6.38,50.862l0.019,1.084l0.722-0.013c0.014,0.305,0.026,0.609,0.046,0.91l-0.405,0.028l0.052,0.742l0.407-0.029   c0.014,0.164,0.029,0.327,0.044,0.489l-0.708,0.075l0.112,1.077l0.712-0.075c0.019,0.163,0.037,0.327,0.058,0.487l-0.406,0.057   l0.103,0.738l0.409-0.059c0.024,0.16,0.048,0.321,0.074,0.48l-0.703,0.111l0.17,1.069l0.717-0.113   c0.056,0.299,0.113,0.598,0.175,0.895l-0.404,0.086l0.155,0.727l0.401-0.085c0.037,0.16,0.078,0.318,0.116,0.478l-0.698,0.175   l0.262,1.051l0.693-0.173c0.042,0.158,0.09,0.314,0.133,0.472l-0.401,0.115l0.205,0.715l0.403-0.115   c0.046,0.154,0.087,0.312,0.135,0.467l-0.682,0.208l0.317,1.036l0.703-0.215c0.097,0.287,0.188,0.578,0.29,0.863l-0.389,0.143   l0.254,0.698l0.391-0.143c0.058,0.153,0.118,0.306,0.178,0.457l-0.669,0.271l0.405,1.005l0.67-0.271   c0.063,0.151,0.13,0.301,0.196,0.449l-0.386,0.174l0.303,0.679l0.383-0.171c0.067,0.147,0.139,0.293,0.208,0.439l-0.655,0.306   l0.458,0.981l0.669-0.312c0.136,0.272,0.271,0.544,0.413,0.812l-0.374,0.198l0.349,0.656l0.376-0.199   c0.078,0.144,0.155,0.287,0.235,0.43l-0.629,0.363l0.542,0.938l0.636-0.367c0.084,0.141,0.165,0.283,0.25,0.423l-0.362,0.226   l0.395,0.632l0.368-0.231c0.087,0.137,0.173,0.274,0.261,0.409l-0.613,0.398l0.59,0.908l0.629-0.409   c0.172,0.251,0.341,0.503,0.519,0.749l-0.349,0.255l0.438,0.601l0.354-0.257c0.097,0.13,0.196,0.261,0.295,0.391l-0.585,0.457   l0.667,0.854l0.588-0.459c0.103,0.127,0.205,0.254,0.309,0.38l-0.339,0.285l0.478,0.568l0.341-0.283   c0.104,0.121,0.208,0.247,0.315,0.367l-0.559,0.486l0.71,0.817l0.571-0.496c0.205,0.223,0.413,0.445,0.622,0.664L18.739,80.2   l0.516,0.534l0.324-0.312c0.115,0.117,0.228,0.234,0.344,0.349l-0.521,0.539l0.779,0.753l0.524-0.541   c0.119,0.11,0.24,0.221,0.36,0.331l-0.304,0.337l0.553,0.498l0.301-0.335c0.122,0.107,0.244,0.212,0.366,0.318l-0.492,0.566   l0.817,0.711l0.502-0.577c0.233,0.192,0.467,0.385,0.706,0.573l-0.276,0.354l0.586,0.458l0.277-0.354   c0.129,0.099,0.261,0.195,0.392,0.294l-0.444,0.61l0.876,0.637l0.444-0.611c0.133,0.094,0.267,0.188,0.401,0.28l-0.253,0.375   l0.616,0.416l0.252-0.374c0.135,0.091,0.271,0.178,0.406,0.266l-0.408,0.629l0.908,0.59l0.417-0.64   c0.258,0.158,0.515,0.317,0.777,0.471l-0.223,0.387l0.644,0.372l0.225-0.39c0.142,0.079,0.282,0.164,0.425,0.243l-0.35,0.659   l0.956,0.508l0.354-0.665c0.146,0.075,0.288,0.155,0.435,0.228l-0.195,0.399l0.668,0.326l0.198-0.403   c0.145,0.069,0.291,0.141,0.438,0.208l-0.315,0.677l0.981,0.457l0.322-0.69c0.278,0.122,0.554,0.246,0.835,0.361l-0.165,0.409   l0.689,0.278l0.164-0.405c0.152,0.06,0.308,0.113,0.46,0.171l-0.256,0.701l1.018,0.37l0.253-0.697   c0.154,0.055,0.31,0.104,0.465,0.155l-0.137,0.421l0.707,0.23l0.138-0.424c0.154,0.05,0.307,0.103,0.462,0.149l-0.216,0.706   l1.036,0.316l0.222-0.726c0.293,0.081,0.582,0.168,0.877,0.242l-0.105,0.425l0.722,0.181l0.107-0.43   c0.158,0.037,0.318,0.074,0.477,0.109l-0.155,0.73l1.059,0.226l0.155-0.733c0.161,0.031,0.321,0.063,0.482,0.093l-0.078,0.438   l0.732,0.131l0.078-0.44c0.16,0.026,0.319,0.056,0.479,0.08l-0.117,0.733l1.07,0.17l0.118-0.751   c0.301,0.039,0.602,0.076,0.903,0.11l-0.047,0.443l0.74,0.079l0.048-0.448c0.162,0.015,0.325,0.03,0.487,0.043l-0.053,0.752   l1.08,0.075l0.053-0.754c0.164,0.009,0.326,0.018,0.489,0.023l-0.016,0.454l0.743,0.026l0.016-0.451   c0.161,0.005,0.323,0.006,0.485,0.009l-0.013,0.751l1.083,0.019l0.013-0.766c0.303-0.005,0.606-0.014,0.908-0.023l0.017,0.459   l0.743-0.025l-0.017-0.456c0.163-0.008,0.325-0.021,0.489-0.031l0.053,0.764l1.082-0.075L53.857,93.1   c0.162-0.014,0.324-0.032,0.486-0.049l0.049,0.46l0.739-0.078l-0.048-0.46c0.161-0.019,0.321-0.033,0.481-0.053l0.093,0.751   l1.075-0.131l-0.096-0.771c0.3-0.046,0.603-0.084,0.898-0.136l0.079,0.448l0.733-0.129l-0.079-0.448   c0.161-0.03,0.321-0.058,0.48-0.091l0.158,0.739l1.059-0.226l-0.158-0.743c0.16-0.036,0.32-0.067,0.478-0.104l0.11,0.438   l0.722-0.181l-0.11-0.442c0.157-0.04,0.312-0.078,0.469-0.121l0.196,0.728l1.044-0.28l-0.197-0.743   c0.29-0.087,0.583-0.169,0.871-0.26l0.139,0.427l0.707-0.23l-0.14-0.432c0.153-0.052,0.31-0.104,0.464-0.156l0.258,0.709   l1.017-0.371l-0.259-0.711c0.152-0.059,0.305-0.118,0.457-0.178l0.17,0.423l0.689-0.278l-0.169-0.421   c0.148-0.062,0.298-0.126,0.445-0.19l0.297,0.696l0.996-0.425l-0.3-0.708c0.273-0.126,0.55-0.252,0.823-0.384l0.199,0.409   l0.669-0.326l-0.203-0.415c0.146-0.074,0.292-0.145,0.438-0.219l0.358,0.673l0.957-0.51l-0.361-0.678   c0.143-0.079,0.287-0.154,0.429-0.233l0.231,0.399l0.643-0.372l-0.232-0.404c0.14-0.081,0.278-0.163,0.417-0.247l0.395,0.655   l0.929-0.559l-0.403-0.669c0.256-0.163,0.513-0.323,0.764-0.491l0.26,0.384l0.616-0.416l-0.261-0.387   c0.135-0.093,0.27-0.185,0.402-0.279l0.45,0.622l0.876-0.637l-0.451-0.624c0.129-0.098,0.259-0.196,0.389-0.296l0.288,0.37   l0.588-0.458l-0.29-0.37c0.128-0.1,0.254-0.2,0.379-0.302l0.483,0.596l0.841-0.682l-0.492-0.606c0.23-0.197,0.46-0.396,0.686-0.598   l0.313,0.348l0.552-0.499l-0.314-0.349c0.119-0.111,0.24-0.221,0.357-0.332l0.538,0.556l0.779-0.753l-0.538-0.557   c0.115-0.114,0.23-0.229,0.346-0.345l0.338,0.326l0.517-0.535l-0.336-0.325c0.11-0.118,0.221-0.236,0.33-0.354l0.562,0.523   l0.739-0.793L82.588,78.7c0.201-0.228,0.401-0.455,0.598-0.686l0.356,0.3l0.478-0.57l-0.354-0.298   c0.104-0.126,0.202-0.255,0.305-0.382l0.607,0.475l0.665-0.854l-0.604-0.473c0.099-0.13,0.196-0.261,0.294-0.392l0.376,0.273   l0.438-0.602l-0.373-0.271c0.094-0.132,0.185-0.265,0.278-0.397l0.625,0.438l0.621-0.888l-0.636-0.444   c0.169-0.252,0.338-0.504,0.5-0.759l0.386,0.241l0.395-0.631l-0.391-0.245c0.083-0.14,0.172-0.276,0.255-0.417l0.659,0.38   l0.541-0.938l-0.661-0.381c0.08-0.143,0.163-0.283,0.241-0.427l0.402,0.215l0.349-0.657l-0.403-0.215   c0.075-0.144,0.151-0.286,0.224-0.431l0.673,0.343l0.49-0.965l-0.684-0.35c0.131-0.272,0.266-0.544,0.391-0.82l0.407,0.182   l0.304-0.68l-0.402-0.18c0.064-0.149,0.124-0.302,0.187-0.452l0.694,0.28l0.405-1.005l-0.691-0.278   c0.06-0.152,0.118-0.306,0.177-0.458l0.414,0.151l0.255-0.698l-0.417-0.152c0.054-0.152,0.111-0.304,0.164-0.457l0.698,0.24   l0.353-1.023l-0.715-0.246c0.091-0.289,0.188-0.576,0.273-0.868l0.417,0.119l0.205-0.715l-0.421-0.12   c0.044-0.158,0.089-0.314,0.13-0.473l0.716,0.179l0.263-1.051l-0.719-0.179c0.038-0.159,0.074-0.319,0.11-0.479l0.428,0.091   l0.153-0.728l-0.426-0.091c0.033-0.158,0.066-0.316,0.098-0.475l0.719,0.139l0.206-1.062l-0.732-0.143   c0.05-0.299,0.098-0.599,0.141-0.899l0.429,0.061l0.104-0.737l-0.431-0.061c0.021-0.161,0.04-0.324,0.059-0.486l0.735,0.078   l0.113-1.078l-0.736-0.076c0.016-0.163,0.031-0.326,0.045-0.489l0.434,0.03l0.053-0.742l-0.435-0.03   c0.01-0.161,0.02-0.322,0.028-0.484l0.732,0.038l0.056-1.081l-0.745-0.039c0.008-0.303,0.016-0.605,0.017-0.91h0.432v-0.744h-0.435   C93.474,49.428,93.472,49.266,93.467,49.102"></path></g></svg>