<svg xmlns="http://www.w3.org/2000/svg" xmlns:xlink="http://www.w3.org/1999/xlink" xmlns:xodm="http://www.corel.com/coreldraw/odm/2003" xml:space="preserve" version="1.1" style="shape-rendering:geometricPrecision;text-rendering:geometricPrecision;image-rendering:optimizeQuality;" viewBox="0 0 29825.45 39062.63" x="0px" y="0px" fill-rule="evenodd" clip-rule="evenodd"><defs><style type="text/css">
   
    .fil0 {fill:black;fill-rule:nonzero}
   
  </style></defs><g><path class="fil0" d="M28609.82 2134.48c0,-171.46 -79.24,-328.44 -202.59,-468.98 -895.78,-1020.57 -3630.97,-1271.8 -4858.35,-1271.8 -1300.19,0 -3592.19,228.78 -4662.25,1085.66 -256.46,205.37 -398.7,427.19 -398.7,655.12 0,956.43 2237.07,1464.46 3015.72,1587.15 844.24,133.01 1720.11,171.01 2495.05,146.54 1120.74,-74.12 2129.68,-153.56 3200.34,-548.12 871.65,-321.22 1410.79,-741.8 1410.79,-1185.56zm-17836.15 7495.32c22.76,-126.94 215.77,-92.33 193.01,34.61 -232.26,1273.93 -108.94,3030.53 -5.56,4503.07 49.31,702.4 94.12,1340.67 94.12,1832.72 0,54.36 -44.07,98.43 -98.43,98.43 -54.36,0 -98.43,-44.07 -98.43,-98.43 0,-489.98 -44.44,-1123.01 -93.35,-1819.65 -104.09,-1482.7 -228.27,-3251.41 8.63,-4550.75zm17048.88 6693.22c-12.13,-128.46 183.18,-146.91 195.31,-18.46 213.47,2176.36 232.57,4474.99 33.33,6652.75 -4.88,53.93 -52.57,93.7 -106.5,88.81 -53.93,-4.88 -93.7,-52.57 -88.81,-106.5 198.17,-2166.13 179,-4451.87 -33.33,-6616.61zm-17482.16 21159.63c-278.45,385.99 -965.09,629.86 -1431.25,610.76 -410.39,-16.82 -740.6,-277.67 -455.39,-673.01 281.43,-390.12 970.75,-629.63 1431.25,-610.75 410.39,16.82 740.61,277.67 455.39,673.01zm-463.09 -476.93c-392.74,-16.1 -1022.99,194.64 -1264.38,529.25 -188.2,260.86 60.2,352.37 303.91,362.36 398.8,16.35 1025.62,-198.3 1264.38,-529.25 188.2,-260.86 -60.21,-352.37 -303.91,-362.35zm-5990.9 332.13c168.46,-76.19 390.24,-76.61 571.66,-48.85 195.72,29.96 374.49,96.41 505.3,179.63 255.91,162.82 361.2,458.07 37.15,604.61 -168.46,76.19 -390.24,76.61 -571.66,48.85 -195.72,-29.96 -374.49,-96.41 -505.3,-179.63 -255.91,-162.82 -361.2,-458.07 -37.15,-604.61zm142.49 439.28c108.34,68.93 259.96,124.52 429.17,150.41 141.31,21.62 331,25.63 461.7,-33.47 169.97,-76.86 53.76,-186.63 -61.75,-260.12 -108.34,-68.93 -259.96,-124.52 -429.17,-150.41 -222.17,-34 -836.4,15.91 -399.95,293.59zm2680.68 22.41l627.03 0c-7.85,-230.12 7.27,-455.41 58.18,-648.57 49.7,-188.54 102.99,-163.89 -107.13,-149.09 -177.62,12.51 -349.91,20.49 -514.59,24.2 -213.26,4.81 -158.54,-27.87 -113.64,159.56 44.51,185.84 49.58,396.95 50.16,613.9zm661.05 393.7l-674.26 0c-95.01,1002.93 -788.74,875.93 -1555.95,850.54 -752.27,-24.92 -1716.19,-257.78 -2554.02,-678.13 -706.51,-354.46 -1328.12,-844.12 -1670.35,-1459.06 -210.35,-377.99 -313.94,-842.24 -318.15,-1352.3 -10.43,-1265.01 619,-2281.01 619,-3600.67 0,-2178.47 -193.59,-3720.66 -396.53,-5337.41 -498.03,-3967.57 -543.11,-7332.22 -251.2,-11311.2 207.74,-2831.62 380.51,-5188.35 -517.39,-9490.51 -34.79,-146.18 -51.77,-298.49 -51.77,-457.41l0 -2122.03 0.77 -1.54c7.74,-668 349.11,-1395.46 997.27,-1655.47 256.46,-393.16 780.93,-735.81 1493.04,-998.24 972.1,-358.24 2310.74,-579.82 3785.49,-579.82 1407.29,0 3994.97,260.49 5066.45,1321.51 411.17,114.7 743.93,306.67 1008.96,552.46 470.38,436.21 720.91,1036.38 814.9,1670.99 91.93,620.63 33.38,1276.65 -115.03,1840.52 -131.85,500.96 -290.19,972.26 -407.97,1487.68 -626.62,2742.06 -491.75,5044.58 -322.98,7925.25 237.83,4059.75 228.82,7646.86 -167.39,11699.36 -146.63,1499.83 -278.97,2853.41 -260.22,4499.48 6.63,582.13 91.01,1022.27 170.69,1437.94 106.6,556.1 205.16,1070.43 114.86,1828.85 -41.52,348.71 -140.48,567.9 -107.26,942.22 78.05,879.35 -126.93,1592.89 -542.24,2164.42 -527.02,725.24 -1388.09,1209.83 -2434.11,1507.1 -549.98,156.3 -927.49,215.53 -1200.35,127.5 -311.73,-100.56 -463.17,-353.2 -524.27,-812.04zm893.09 -1698.15c1295.03,-209.35 3338.38,-725.7 3523.52,-2264.37 85.15,-707.43 -8.22,-1194.68 -109.25,-1721.7 -82.44,-430.08 -169.75,-885.49 -176.85,-1508.68 -19,-1667.75 114.19,-3030.02 261.76,-4539.47 394.44,-4034.46 402.61,-7599.3 165.84,-11640.92 -169.31,-2889.96 -304.83,-5204.52 317.46,-7968.14 -895.62,873.59 -2669.55,1359.43 -3887.13,1349.74 -422.42,-3.36 -839.84,-74.14 -964.1,-543.18 -184.5,4.48 -370.1,4.06 -554.56,-2.25 -192.1,395.3 -581.69,412.51 -979.18,430.1 -1614.8,71.45 -3982.54,-155.72 -5219.65,-1302.09 674.68,3707.64 512.1,5926.64 319.74,8548.57 -290.41,3958.52 -245.82,7288.52 249.66,11235.84 204.52,1629.3 399.61,3183.47 399.61,5385.08 0,1268.3 -380.02,1664.68 -400.63,2471 0.21,620.44 505.64,1075.49 1189.66,1404.32 1057.48,508.35 2521.2,711.24 3323.49,766.34 805.91,55.3 1745.36,28.36 2540.59,-100.19zm-489.07 755.84c-63.03,239.14 -115.3,1265.95 240.21,1380.63 184.91,59.65 497.3,3.44 974.28,-132.12 964.03,-273.96 1751.3,-711.9 2221.88,-1359.46 262.54,-361.29 427.85,-791.72 471.6,-1300.04 49.67,-577.28 26.73,-401.67 -277.98,-144.2 -808.89,683.54 -2073.39,1026.43 -3100.94,1189.82 -264.06,41.98 -435.56,10.67 -529.05,365.36zm-1910.48 -254.2c-783.16,-39.23 -2445.08,-242.68 -3633.7,-814.08 -382.75,-184 -718.42,-406.26 -966.57,-673.79 -258.39,-278.57 -278.64,-543.17 -273.82,42.35 3.67,445.24 91.24,845.37 268.93,1164.67 300.44,539.85 860.93,977.13 1502.72,1299.13 786.83,394.76 1688.93,613.34 2391,636.6 695.65,22.98 1221.56,150.45 1163.22,-768.78 0,-253.61 -0.04,-502.05 -57.77,-670.22 -72.86,-212.25 -212.16,-197.13 -394.02,-215.88zm4545.8 -2744.34c39.7,-36.94 101.85,-34.7 138.8,5 36.94,39.7 34.7,101.85 -5,138.8 -800.41,747.83 -2455.56,1125.17 -4093.01,1114.81 -1607.54,-10.17 -3205.93,-393.97 -3971.6,-1167.66 -91.03,-91.54 48.15,-229.95 139.18,-138.41 727.61,735.22 2272.07,1100.11 3833.19,1109.99 1593.07,10.08 3195.32,-349.53 3958.44,-1062.53zm-3461.44 -29609.96c130.74,-1.2 284,-6.52 424.53,-12.04 16.21,-148.31 51.28,-286.58 123.86,-413.35 -230.44,19.93 -466.51,34.35 -707.15,42.84 71.98,101.61 123.92,226.91 158.75,382.54zm410.92 381.25c-118.24,4.54 -244.31,8.76 -360.2,10.47 45.86,676.98 5.34,1563.38 -52.68,2232.43 137.55,3.32 275.34,3.19 412.89,0.15l0 -2243.04zm-3799.97 1897.43c-180.28,-385.18 -132.06,-1112.28 201.59,-1403.44 -381.52,-68.76 -869.93,-74.04 -1217.98,99.65 -515.2,257.1 -277.1,676.47 108.08,940.75 236.35,162.17 553.74,293.19 908.32,363.05zm505.07 -1331.65c-476.23,61.07 -516.32,1165.88 -244.42,1370.84 322.45,33.35 712.46,15.31 1003.78,-130.07 515.2,-257.1 277.11,-676.47 -108.08,-940.75 -177.56,-121.83 -400.85,-226.07 -651.28,-300.02zm-1546.26 1163.3c-541.43,-371.48 -764.63,-1005.3 -80.39,-1346.76 691.2,-344.93 1806.37,-125.94 2410.81,288.78 541.43,371.48 764.63,1005.3 80.39,1346.76 -369.61,184.45 -857.46,196.68 -1262.67,137.26 -447.01,-65.55 -853.05,-223.56 -1148.14,-426.03zm9607.41 -3810.72c26.33,-47.35 86.06,-64.39 133.41,-38.06 47.35,26.33 64.39,86.06 38.06,133.41 -278.62,501.89 -775.79,909.9 -1436.13,1222.24 -683.7,323.38 -1544.04,545.16 -2518,662.93 -128.46,15.17 -151.52,-180.14 -23.07,-195.31 953.58,-115.31 1793.28,-331.19 2457.26,-645.24 623.76,-295.03 1090.81,-675.8 1348.48,-1139.96zm-6436.21 1929.55c54.14,1.91 96.49,47.36 94.58,101.5 -1.91,54.14 -47.36,96.49 -101.5,94.58 -1047.22,-39.65 -2010.37,-182.15 -2827.67,-401.39 -846.2,-226.98 -1539.18,-537.16 -2011.16,-901.81 -42.89,-33.12 -50.81,-94.75 -17.69,-137.64 33.12,-42.89 94.75,-50.81 137.64,-17.69 451.09,348.52 1120.24,646.8 1941.95,867.21 804.83,215.89 1753.07,356.21 2783.84,395.24zm3794.07 690.1c418.96,-332.61 1218.48,-556.41 1715.57,-301.55 491.65,252.08 298.37,749.29 -61.12,1034.69 -418.97,332.6 -1218.48,556.41 -1715.57,301.55 -491.65,-252.08 -298.37,-749.29 61.12,-1034.69zm146.72 184.55c-212.32,168.56 -426.35,473.75 -100.8,640.67 409.31,209.87 1118.08,-3.74 1461.82,-276.63 212.31,-168.56 426.35,-473.75 100.8,-640.67 -409.33,-209.86 -1118.07,3.73 -1461.82,276.63zm1707.27 -3611.76c0,-216.19 -127.95,-426.87 -359.97,-623.24 -1044.48,-884.03 -3409.23,-1117.53 -4700.98,-1117.53 -1429.04,0 -2719.31,212.18 -3650.15,555.21 -432.8,159.5 -1410.79,583.2 -1410.79,1185.56 0,1331.46 3662.44,1670.9 4611.13,1733.68 828.54,26.22 1671.61,-17.54 2490.18,-146.18 779.3,-122.47 3020.58,-629.58 3020.58,-1587.5zm-2959.91 1975.75c-274.03,56.47 -428.91,145.87 -512.68,260.19 -97.93,133.65 -112.59,326.22 -112.56,546.98l0.77 0 0 2433.02 -0.77 1.54c-3.56,437.02 241.34,454.49 609.78,457.42 1158.74,9.23 3011.15,-486.59 3775.99,-1418.38l7.69 -9.22c212.45,-229.09 402.11,-624.85 526.17,-1096.25 135.98,-516.65 189.75,-1116.89 105.8,-1683.66 -81.87,-552.8 -295.42,-1071.24 -693.41,-1440.31 -353.7,-328.02 -353.18,-356.9 -353.18,-27.07 0,1256.89 -2343.46,1816.01 -3353.61,1975.75zm-7555.36 -1955.26c-279.85,272.01 -424.48,696.51 -429.3,1080.1l0.74 0 0 2122.03c0,636.26 345.56,1065.99 849.79,1402.86 1230.92,822.37 3153.48,998.04 4600.83,934.09 343.37,-15.19 677.82,-30 719.52,-550.05 55.37,-690.7 98.52,-1498.93 35.8,-2188.37 -29.14,-320.31 -104.75,-491.75 -250.78,-577.55 -113.32,-66.58 -277.9,-98.54 -498.27,-115.36 -1197.13,-35 -4991.56,-456.02 -5028.34,-2107.76zm9337.12 132.16c107.6,-71.22 216,92.58 108.43,163.79 -1576.04,1046.8 -6493.26,1072.84 -8039.62,-37.96 -43.95,-31.64 -53.94,-92.92 -22.3,-136.87 31.64,-43.95 92.92,-53.94 136.87,-22.3 1480.35,1063.39 6307.21,1035.9 7816.62,33.35zm9484.87 35080.95c242.48,336.12 875.02,545.21 1264.38,529.25 243.71,-9.99 492.11,-101.5 303.91,-362.36 -242.49,-336.13 -875.01,-545.21 -1264.38,-529.25 -243.7,9.99 -492.11,101.49 -303.91,362.35zm296.22 -558.43c457.48,-18.75 1149.48,220.16 1431.25,610.75 285.21,395.34 -45.01,656.19 -455.39,673.01 -457.48,18.75 -1149.48,-220.17 -1431.25,-610.76 -285.21,-395.34 45.01,-656.19 455.39,-673.01zm5917.85 707.37c-245.2,-110.89 -678.41,-18.24 -890.87,116.94 -115.51,73.49 -231.72,183.26 -61.75,260.12 245.2,110.89 678.41,18.24 890.87,-116.94 115.51,-73.49 231.72,-183.26 61.75,-260.12zm43.59 425.44c-271.43,172.69 -768.67,270.2 -1076.96,130.78 -324.06,-146.53 -218.76,-441.78 37.15,-604.61 271.43,-172.69 768.67,-270.2 1076.96,-130.78 324.06,146.53 218.76,441.78 -37.15,604.61zm-2772.82 250.78l-674.26 0c-61.11,458.83 -212.54,711.47 -524.27,812.04 -272.87,88.02 -650.38,28.8 -1200.35,-127.5 -1046.02,-297.27 -1907.09,-781.86 -2434.11,-1507.1 -412.11,-567.11 -617.12,-1274.05 -544,-2144.07 31.48,-374.71 -42.15,-506.98 -88.53,-832.86 -118.27,-830.67 -14.68,-1371.31 97.89,-1958.55 79.68,-415.67 164.06,-855.81 170.69,-1437.94 18.75,-1646.07 -113.58,-2999.65 -260.22,-4499.48 -396.21,-4052.5 -405.22,-7639.61 -167.39,-11699.36 168.84,-2881.88 303.74,-5185.11 -323.77,-7928.69 -117.6,-514.16 -275.65,-984.48 -407.19,-1484.24 -303.41,-1152.81 -226.22,-2652.69 699.87,-3511.52 265.04,-245.79 597.8,-437.76 1008.96,-552.46 1071.35,-1061 3659.28,-1321.51 5066.45,-1321.51 1370.56,0 4436.3,286.91 5278.54,1578.06 648.16,260.01 989.53,987.47 997.27,1655.47l0.77 1.54 0 2122.03c0,158.92 -16.98,311.23 -51.77,457.41 -897.91,4302.16 -725.13,6658.89 -517.39,9490.51 291.91,3978.98 246.83,7343.63 -251.2,11311.2 -202.94,1616.75 -396.53,3158.94 -396.53,5337.41 0,737.19 122.6,1164.81 230,1539.47 193.25,674.09 394.83,1353.31 388.99,2061.2 -4.2,510.06 -107.79,974.31 -318.15,1352.3 -342.23,614.94 -963.84,1104.6 -1670.35,1459.06 -837.83,420.35 -1801.75,653.2 -2554.02,678.13 -32.58,1.08 -78.63,2.73 -123.59,4.35 -141.59,5.08 -272,9.77 -367.39,9.77 -640.09,0 -994.2,-117.62 -1064.97,-864.65zm-640.24 -393.7l627.03 0c0.67,-251.44 3.54,-535.48 100.52,-771.13 -260.74,-1.44 -543.91,-14.02 -839.54,-39 102.7,248.54 121.04,544.8 111.98,810.13zm-861.11 -897.62c-648.55,-96.94 -1316.02,-253.04 -1910.96,-480.21 -643.92,-245.86 -1207.07,-576 -1582.5,-1006.34 -29.14,697.8 147.42,1266.74 480.15,1724.62 470.58,647.56 1257.85,1085.5 2221.88,1359.46 476.98,135.56 789.37,191.77 974.28,132.12 143.83,-46.4 218.15,-201.72 256.44,-497.3 0.51,-3.93 1.69,-15.28 6.62,-57.95 33.98,-293.79 37.67,-595.77 -22.85,-825.39 -83.58,-317.09 -207.09,-316.74 -423.07,-349.02zm303.69 -353.43c728.32,92.81 1365.69,94.57 2082.87,52.41 779.16,-45.83 2314.1,-244.4 3411.52,-771.96 1141.56,-548.78 1360.97,-1089.11 1034.41,-2228.2 -114.59,-399.71 -245.38,-855.92 -245.38,-1647.12 0,-2201.61 195.09,-3755.78 399.61,-5385.08 495.48,-3947.31 540.07,-7277.31 249.66,-11235.84 -192.36,-2621.93 -354.94,-4840.93 319.74,-8548.57 -293.92,272.36 -693.6,514.06 -1210.64,730.9 -557.35,233.75 -1184.91,382.14 -1796.57,471.34 -742.52,108.28 -1464.37,132.95 -2212.44,99.85 -397.49,-17.59 -787.06,-34.84 -979.18,-430.1 -184.46,6.31 -370.06,6.73 -554.56,2.25 -124.26,469.04 -541.68,539.81 -964.1,543.18 -591.91,4.71 -1537.65,-133.91 -2406.39,-463.34 -557.5,-211.41 -1087.05,-502.39 -1480.74,-886.4 622.3,2763.62 486.78,5078.19 317.46,7968.14 -236.77,4041.62 -228.6,7606.46 165.84,11640.92 147.57,1509.45 280.76,2871.72 261.76,4539.47 -7.1,623.19 -94.41,1078.6 -176.85,1508.68 -105.52,550.49 -202.69,1057.57 -96.8,1817.52 128.69,923.62 1007.75,1422.8 1806.06,1727.62 661.36,252.52 1393.36,407.55 2074.7,494.34zm2029.86 448.24c-181.86,18.75 -321.16,3.63 -394.02,215.88 -57.73,168.17 -57.77,416.61 -57.77,670.22 0,682.43 227.41,781.36 684.56,781.36 124.31,0 234.2,-3.95 353.54,-8.23 35.96,-1.29 72.83,-2.62 125.13,-4.35 702.07,-23.26 1604.17,-241.84 2391,-636.6 641.79,-321.99 1202.28,-759.28 1502.72,-1299.13 177.69,-319.3 265.26,-719.43 268.93,-1164.67 4.39,-532.91 10,-373.26 -215.22,-108.31 -252.64,297.2 -611.4,540.83 -1025.17,739.75 -1188.62,571.4 -2850.54,774.85 -3633.7,814.08zm-4679.6 -2600.55c-94.57,-88 39.23,-231.79 133.8,-143.8 763.12,713 2365.38,1072.61 3958.44,1062.53 1561.11,-9.87 3105.58,-374.76 3833.19,-1109.99 38.22,-38.43 100.36,-38.61 138.8,-0.39 38.43,38.22 38.61,100.36 0.39,138.8 -765.67,773.69 -2364.06,1157.49 -3971.6,1167.66 -1637.46,10.36 -3292.61,-366.98 -4093.01,-1114.81zm3544.52 -29362.04c-115.9,-1.7 -241.96,-5.93 -360.2,-10.47l0 2243.04c137.55,3.05 275.33,3.18 412.89,-0.15 -84.33,-672.48 -98.47,-1556.54 -52.68,-2232.43zm-373.82 -403.76c140.53,5.51 293.79,10.83 424.53,12.04 34.83,-155.63 86.77,-280.93 158.75,-382.54 -240.63,-8.5 -476.7,-22.91 -707.15,-42.84 72.58,126.77 107.65,265.04 123.86,413.35zm3552.94 2329.9c271.9,-204.96 231.81,-1309.76 -244.42,-1370.84 -250.43,73.95 -473.73,178.2 -651.28,300.02 -385.19,264.28 -623.28,683.65 -108.08,940.75 291.32,145.38 681.33,163.42 1003.78,130.07zm59.06 -1442.63c333.64,291.17 381.87,1018.27 201.59,1403.44 354.58,-69.85 671.97,-200.88 908.32,-363.05 385.18,-264.28 623.28,-683.65 108.08,-940.75 -349.68,-174.5 -838.84,-168.01 -1217.98,-99.65zm1242.78 1235.1c-295.09,202.47 -701.13,360.48 -1148.14,426.03 -405.21,59.42 -893.06,47.19 -1262.67,-137.26 -684.24,-341.46 -461.03,-975.28 80.39,-1346.76 244.3,-168.81 561.02,-306.37 925.48,-385.79 465.32,-101.4 1054.22,-118.12 1485.33,97.02 684.24,341.46 461.03,975.28 -80.39,1346.76zm-9778.88 -3715.37c-62.71,-112.78 108.77,-208.12 171.47,-95.35 663.19,1194.61 2559.43,1634.5 3805.74,1785.2 128.45,15.17 105.39,210.49 -23.07,195.31 -1320.72,-159.7 -3253.35,-622.81 -3954.14,-1885.17zm6614.61 2030.28c-128.96,4.55 -135.87,-191.53 -6.92,-196.08 1432.36,-54.23 3564.59,-365.29 4725.8,-1262.45 102.03,-78.79 221.98,76.54 119.95,155.33 -1199.93,927.07 -3358.43,1247.14 -4838.83,1303.2zm-3947.7 678.57c-343.75,-272.91 -1052.49,-486.49 -1461.82,-276.63 -325.55,166.92 -111.52,472.11 100.8,640.67 343.74,272.89 1052.51,486.5 1461.82,276.63 325.55,-166.92 111.52,-472.11 -100.8,-640.67zm146.72 -184.55c359.5,285.4 552.78,782.61 61.12,1034.69 -497.1,254.87 -1296.61,31.06 -1715.57,-301.55 -359.49,-285.4 -552.77,-782.61 -61.12,-1034.69 497.1,-254.86 1296.61,-31.07 1715.57,301.55zm-2600.87 -3400.14c-812.08,753.09 -851.99,2119.44 -587.6,3123.97 124.07,471.39 313.72,867.16 526.17,1096.25l7.69 9.22c354.02,431.3 912.41,752.62 1511.09,979.64 822.41,311.86 1711.27,443.15 2264.9,438.74 368.44,-2.93 613.34,-20.4 609.78,-457.42l-0.77 -1.54 0 -2433.02 0.77 0c0.06,-506.71 -108.17,-700.62 -625.24,-807.17 -1010.15,-159.74 -3353.61,-718.86 -3353.61,-1975.75 -5.02,-177.9 -3.63,-286.37 -353.18,27.07zm6233.81 2101.17c-518.76,39.58 -698.71,139.55 -749.05,692.91 -62.72,689.44 -19.57,1497.67 35.8,2188.37 41.69,520.06 376.14,534.86 719.52,550.05 723.94,31.98 1421.51,8.04 2140.16,-96.77 580.23,-84.62 1174.31,-224.86 1699.68,-445.2 576.15,-241.63 985.27,-508.76 1246.51,-810.95 248.78,-287.77 364.27,-612.83 364.27,-984.04l0 -2122.03 0.74 0c-4.81,-383.59 -149.45,-808.09 -429.3,-1080.1 -13.76,617.81 -648.81,1158.27 -1668.83,1534.17 -877.6,323.42 -2053.97,535.43 -3359.51,573.59zm-4417.2 -1811.81c-107.58,-71.21 0.83,-235.01 108.43,-163.79 1509.41,1002.55 6336.27,1030.04 7816.62,-33.35 43.95,-31.64 105.24,-21.65 136.87,22.3 31.64,43.95 21.65,105.24 -22.3,136.87 -1546.36,1110.8 -6463.58,1084.76 -8039.62,37.96z"></path></g></svg>