<svg xmlns="http://www.w3.org/2000/svg" xmlns:xlink="http://www.w3.org/1999/xlink" version="1.1" x="0px" y="0px" viewBox="0 0 64 64" enable-background="new 0 0 64 64" xml:space="preserve"><g><g><path fill="#000000" d="M28.5,31.5h-2.1c-0.8,0-1.5-0.2-2.1-0.7c-1.1-0.8-2.5-1.3-3.9-1.3L7,29.5v3h13.3c0.8,0,1.5,0.2,2.1,0.7    c1.1,0.8,2.5,1.3,3.9,1.3h2.1V31.5z"></path><path fill="#000000" d="M43.7,29.5c-1.4,0-2.8,0.5-3.9,1.3c-0.6,0.5-1.4,0.7-2.1,0.7h-2.1v3h2.1c1.4,0,2.8-0.5,3.9-1.3    c0.6-0.5,1.3-0.7,2.1-0.7H57v-3L43.7,29.5z"></path></g><rect x="29" y="31.2" fill="#000000" width="6" height="3.8"></rect></g></svg>