<svg xmlns="http://www.w3.org/2000/svg" xmlns:xlink="http://www.w3.org/1999/xlink" xml:space="preserve" version="1.1" style="shape-rendering:geometricPrecision;text-rendering:geometricPrecision;image-rendering:optimizeQuality;" viewBox="0 0 50000 50000" x="0px" y="0px" fill-rule="evenodd" clip-rule="evenodd"><defs><style type="text/css">
   
    .str0 {stroke:black;stroke-width:564.44}
    .fil0 {fill:none}
   
  </style></defs><g><g><rect class="fil0 str0" x="15990" y="20031" width="18073" height="9938"></rect><path class="fil0 str0" d="M12435 15846l0 18308c2223,0 2118,-2226 2118,-2226l0 -13782c0,0 189,-2300 -2118,-2300z"></path><rect class="fil0 str0" x="9472" y="23692" width="1651" height="2615"></rect><path class="fil0 str0" d="M35524 18174l0 13749c0,4 14,2231 2118,2231l0 -18308c-2233,0 -2118,2328 -2118,2328z"></path><path class="fil0 str0" d="M8308 21338l0 7324c-1831,0 -1744,-891 -1744,-891l0 -5513c0,0 -156,-920 1744,-920z"></path><rect class="fil0 str0" x="3103" y="22924" width="2159" height="4151"></rect><path class="fil0 str0" d="M3027 26578c-812,0 -1470,-711 -1470,-1588 0,-878 658,-1589 1470,-1589"></path><rect class="fil0 str0" x="38877" y="23692" width="1651" height="2615"></rect><path class="fil0 str0" d="M41692 21338l0 7324c1831,0 1744,-891 1744,-891l0 -5513c0,0 156,-920 -1744,-920z"></path><rect class="fil0 str0" x="44738" y="22924" width="2159" height="4151"></rect><path class="fil0 str0" d="M46973 26578c812,0 1471,-711 1471,-1588 0,-878 -659,-1589 -1471,-1589"></path></g></g></svg>