<svg xmlns="http://www.w3.org/2000/svg" xmlns:xlink="http://www.w3.org/1999/xlink" version="1.1" x="0px" y="0px" viewBox="0 0 100 100" enable-background="new 0 0 100 100" xml:space="preserve"><g><path d="M21.616,80.179l14.524,6.462c0.191,0.085,0.399,0.129,0.609,0.129h26.5c0.21,0,0.418-0.044,0.609-0.129l14.524-6.462h0.001   c1.254-0.559,2.034-1.806,1.985-3.179c-0.048-1.373-0.913-2.562-2.203-3.031l-18.597-6.76c-0.164-0.06-0.338-0.09-0.513-0.09   H40.942c-0.175,0-0.349,0.031-0.513,0.09l-18.596,6.76c-1.291,0.469-2.156,1.658-2.204,3.031   C19.581,78.373,20.361,79.62,21.616,80.179z M22.858,76.789l18.349-6.67h17.586l18.35,6.67c0.146,0.054,0.224,0.16,0.229,0.316   c0.006,0.157-0.064,0.269-0.207,0.333l-14.233,6.333H37.068l-14.232-6.333c-0.144-0.063-0.214-0.175-0.208-0.333   C22.634,76.949,22.711,76.842,22.858,76.789z"></path><path d="M12.526,86.301L38.71,96.399c0.173,0.066,0.355,0.101,0.54,0.101h21.5c0.185,0,0.367-0.034,0.54-0.101l26.184-10.098   c1.991-0.768,3.329-2.718,3.329-4.852V24.386c0-1.541-0.677-2.993-1.857-3.984c-1.181-0.99-2.728-1.406-4.247-1.137l-17.871,3.154   c-1.832,0.321-3.724-0.245-5.073-1.517l-2.524-2.379v-6.491c0-0.829-0.672-1.5-1.5-1.5h-1.027V5c0-0.829-0.672-1.5-1.5-1.5H44.798   c-0.828,0-1.5,0.671-1.5,1.5v5.532h-1.027c-0.828,0-1.5,0.671-1.5,1.5v6.491l-2.525,2.38c-1.349,1.272-3.24,1.84-5.072,1.517   l-17.871-3.154c-1.52-0.269-3.066,0.147-4.247,1.137c-1.181,0.991-1.857,2.443-1.857,3.984v57.063   C9.197,83.583,10.535,85.533,12.526,86.301z M43.771,13.532h1.027h10.404h1.027v4.138H43.771V13.532z M46.298,6.5h7.404v4.032   h-7.404V6.5z M12.197,24.386c0-0.652,0.286-1.267,0.786-1.686c0.499-0.42,1.156-0.594,1.797-0.481l17.871,3.154   c2.758,0.487,5.615-0.369,7.651-2.288l2.563-2.416h14.268l2.562,2.415c2.036,1.919,4.897,2.777,7.652,2.288l17.871-3.154   c0.642-0.112,1.298,0.062,1.797,0.481c0.5,0.419,0.786,1.033,0.786,1.686v57.063c0,0.903-0.566,1.728-1.409,2.053L60.471,93.5   H39.529l-25.923-9.998c-0.843-0.325-1.409-1.15-1.409-2.053V24.386z"></path><circle cx="16.23" cy="27.787" r="1.5"></circle><circle cx="16.23" cy="53.385" r="1.5"></circle><circle cx="16.23" cy="78.984" r="1.5"></circle><path d="M58.132,59.207l15.179,8.085c0.636,0.339,1.324,0.507,2.012,0.507c0.759,0,1.517-0.206,2.198-0.615   c1.3-0.78,2.075-2.15,2.075-3.666V34.133c0-1.234-0.533-2.408-1.462-3.22c-0.931-0.812-2.17-1.183-3.387-1.017l-15.179,2.054   c-2.11,0.286-3.702,2.107-3.702,4.237v19.246C55.866,57.016,56.734,58.462,58.132,59.207z M58.866,36.188   c0-0.635,0.475-1.179,1.104-1.264l15.179-2.054c0.06-0.008,0.118-0.012,0.177-0.012c0.307,0,0.598,0.109,0.833,0.315   c0.281,0.246,0.437,0.587,0.437,0.96v29.385c0,0.652-0.433,0.982-0.619,1.094c-0.188,0.111-0.681,0.336-1.256,0.032l-15.179-8.085   c-0.417-0.222-0.676-0.654-0.676-1.126V36.188z"></path><path d="M22.479,67.184c0.682,0.409,1.438,0.615,2.198,0.615c0.688,0,1.376-0.168,2.012-0.507l15.179-8.085   c1.397-0.745,2.266-2.19,2.266-3.773V36.188c0-2.129-1.592-3.951-3.702-4.237l-15.179-2.054c-1.221-0.167-2.457,0.204-3.387,1.017   c-0.929,0.812-1.462,1.985-1.462,3.22v29.385C20.404,65.034,21.18,66.404,22.479,67.184z M23.404,34.133   c0-0.374,0.155-0.715,0.437-0.96c0.235-0.206,0.526-0.315,0.833-0.315c0.059,0,0.117,0.004,0.177,0.012l15.179,2.054   c0.63,0.085,1.104,0.629,1.104,1.264v19.246c0,0.472-0.259,0.904-0.676,1.126l-15.179,8.085c-0.576,0.306-1.069,0.079-1.256-0.032   c-0.187-0.112-0.619-0.442-0.619-1.094V34.133z"></path><circle cx="83.77" cy="27.787" r="1.5"></circle><circle cx="83.77" cy="53.385" r="1.5"></circle><circle cx="83.77" cy="78.984" r="1.5"></circle></g></svg>