<svg xmlns="http://www.w3.org/2000/svg" xmlns:xlink="http://www.w3.org/1999/xlink" version="1.1" x="0px" y="0px" viewBox="0 0 512 512" style="enable-background:new 0 0 512 512;" xml:space="preserve"><g><path d="M14.43,59.24l20.36,16.24c0.64,0.51,1.41,0.76,2.18,0.76c1.03,0,2.05-0.45,2.74-1.32c1.21-1.51,0.96-3.71-0.55-4.92   L18.79,53.77c-1.51-1.2-3.71-0.96-4.92,0.55C12.67,55.83,12.92,58.04,14.43,59.24z"></path><circle cx="256" cy="256" r="15.7"></circle><path d="M256,212.63c-23.92,0-43.37,19.46-43.37,43.37s19.46,43.37,43.37,43.37s43.37-19.46,43.37-43.37S279.92,212.63,256,212.63z    M256,292.37c-20.06,0-36.37-16.32-36.37-36.37s16.32-36.37,36.37-36.37s36.37,16.32,36.37,36.37S276.06,292.37,256,292.37z"></path><path d="M428.15,83.85C382.17,37.86,321.03,12.54,256,12.54S129.83,37.86,83.85,83.85S12.54,190.97,12.54,256   s25.32,126.17,71.31,172.15S190.97,499.46,256,499.46c7.13,0,14.33-0.31,21.41-0.93c1.93-0.17,3.35-1.86,3.18-3.79   c-0.17-1.93-1.86-3.35-3.79-3.18c-6.87,0.6-13.87,0.9-20.8,0.9c-14.3,0-28.41-1.27-42.19-3.74l42.05-140.79   c0,0,43.48,144.59,43.5,144.63c0.56,1.63,2.24,2.65,3.97,2.31c54.54-10.74,104.26-40.34,140-83.34   c36.2-43.56,56.14-98.79,56.14-155.52C499.46,190.97,474.14,129.83,428.15,83.85z M423.2,88.8c10.09,10.09,19.14,20.94,27.13,32.4   l-129.18,69.77l69.54-129.38C402.2,69.6,413.08,78.68,423.2,88.8z M256,19.54c14.29,0,28.38,1.27,42.15,3.74l-42,140.65   L213.83,23.28C227.61,20.81,241.71,19.54,256,19.54z M88.8,88.8c10.12-10.12,21-19.19,32.5-27.2l69.76,129.17l-129.4-69.55   C69.65,109.74,78.7,98.89,88.8,88.8z M19.54,256c0-14.32,1.28-28.44,3.75-42.25L164,255.77L23.27,298.11   C20.81,284.35,19.54,270.27,19.54,256z M88.8,423.2c-10.12-10.12-19.21-21.01-27.22-32.52l129.27-69.81l-69.6,129.5   C109.76,442.37,98.9,433.3,88.8,423.2z M437.94,407.05c-13.78,16.58-29.7,31.09-47.2,43.24l-69.79-129.22l129.44,69.57   C446.49,396.28,442.34,401.75,437.94,407.05z M454.3,384.8l-139.4-74.92l-11.98-22.18c-0.92-1.7-3.04-2.34-4.74-1.42   c-1.7,0.92-2.33,3.04-1.42,4.74l6.93,12.83l-12.87-6.92c-1.7-0.91-3.82-0.28-4.74,1.43c-0.92,1.7-0.28,3.83,1.43,4.74l22.23,11.95   l75.16,139.17c-24.26,15.8-51.34,27.11-79.83,33.13L259.5,335.73l7.22-24.16c0.55-1.85-0.5-3.8-2.35-4.35   c-1.85-0.55-3.8,0.5-4.35,2.35l-4.17,13.98l-4.21-13.99c-0.56-1.85-2.51-2.9-4.36-2.34c-1.85,0.56-2.9,2.51-2.34,4.36l7.27,24.18   L206.9,487.37c-28.47-5.98-55.46-17.16-79.82-33.07l74.97-139.48l22.18-11.98c1.7-0.92,2.33-3.04,1.42-4.74s-3.04-2.34-4.74-1.42   l-12.83,6.93l6.92-12.87c0.92-1.7,0.28-3.83-1.43-4.74c-1.7-0.91-3.82-0.28-4.74,1.43l-11.95,22.23L57.65,384.84   c-15.9-24.37-27.07-51.35-33.04-79.83l151.58-45.6l24.15,7.21c0.33,0.1,0.67,0.15,1,0.15c1.51,0,2.9-0.98,3.35-2.5   c0.55-1.85-0.5-3.8-2.35-4.35l-13.97-4.17l13.99-4.21c1.85-0.56,2.9-2.51,2.34-4.36c-0.56-1.85-2.51-2.9-4.36-2.34l-24.17,7.27   L24.64,206.85c5.99-28.47,17.17-55.44,33.08-79.8l139.38,74.91l11.98,22.18c0.63,1.17,1.84,1.84,3.08,1.84   c0.56,0,1.13-0.14,1.66-0.42c1.7-0.92,2.33-3.04,1.42-4.74l-6.93-12.83l12.87,6.92c0.53,0.28,1.09,0.42,1.65,0.42   c1.25,0,2.45-0.67,3.09-1.84c0.92-1.7,0.28-3.83-1.43-4.74l-22.23-11.95L127.13,57.67c24.36-15.9,51.34-27.07,79.8-33.05   l45.57,151.49l-7.21,24.15c-0.55,1.85,0.5,3.8,2.35,4.35c0.33,0.1,0.67,0.15,1,0.15c1.51,0,2.9-0.98,3.35-2.5l4.17-13.97   l4.21,13.99c0.46,1.52,1.85,2.49,3.35,2.49c0.33,0,0.67-0.05,1.01-0.15c1.85-0.56,2.9-2.51,2.34-4.36l-7.27-24.17l45.24-151.49   c28.47,5.97,55.45,17.15,79.8,33.04l-74.9,139.35l-22.18,11.98c-1.7,0.92-2.33,3.04-1.42,4.74c0.63,1.17,1.84,1.84,3.08,1.84   c0.56,0,1.13-0.14,1.66-0.42l12.83-6.93l-6.92,12.87c-0.92,1.7-0.28,3.83,1.43,4.74c0.53,0.28,1.09,0.42,1.65,0.42   c1.25,0,2.45-0.67,3.09-1.84l11.95-22.23l139.14-75.14c15.91,24.35,27.1,51.33,33.09,79.8L335.8,252.42l-24.15-7.21   c-1.85-0.55-3.8,0.5-4.35,2.35c-0.55,1.85,0.5,3.8,2.35,4.35l13.97,4.17l-13.99,4.21c-1.85,0.56-2.9,2.51-2.34,4.36   c0.46,1.52,1.85,2.49,3.35,2.49c0.33,0,0.67-0.05,1.01-0.15l24.17-7.27l151.5,45.24C481.29,333.33,470.11,360.43,454.3,384.8z    M348,256.06l140.71-42.33c2.48,13.81,3.76,27.94,3.76,42.27c0,14.18-1.29,28.26-3.79,42.07L348,256.06z"></path><path d="M85.54,42.72c0.43,1.55,1.84,2.57,3.37,2.57c0.31,0,0.62-0.04,0.93-0.13c1.86-0.51,2.96-2.44,2.45-4.3l-6.91-25.11   c-0.51-1.86-2.44-2.96-4.3-2.45c-1.86,0.51-2.96,2.44-2.45,4.3L85.54,42.72z"></path><path d="M497.56,437.71l-23.32-11.59c-1.73-0.86-3.83-0.15-4.69,1.58c-0.86,1.73-0.15,3.83,1.58,4.69l23.32,11.59   c0.5,0.25,1.03,0.37,1.56,0.37c1.29,0,2.52-0.71,3.14-1.94C499.99,440.67,499.29,438.57,497.56,437.71z"></path><path d="M428.1,470.82c-0.37-1.9-2.22-3.13-4.11-2.76c-1.9,0.37-3.13,2.21-2.76,4.11l5.02,25.55c0.33,1.67,1.79,2.83,3.43,2.83   c0.22,0,0.45-0.02,0.68-0.07c1.9-0.37,3.13-2.21,2.76-4.11L428.1,470.82z"></path></g></svg>