<svg xmlns="http://www.w3.org/2000/svg" xmlns:xlink="http://www.w3.org/1999/xlink" version="1.1" x="0px" y="0px" viewBox="0 0 64 64" enable-background="new 0 0 64 64" xml:space="preserve"><g><g><path d="M52.496,7.336C48.938,1.997,47.606,0,44,0c-3.989,0-6.407,1.493-8.173,2.584C34.398,3.467,33.536,4,32,4    c-1.535,0-2.398-0.533-3.827-1.416C26.407,1.493,23.989,0,20,0c-3.606,0-4.937,1.997-8.496,7.336C9.285,10.664,8,13.149,8,16    c0,3.495,2.608,6.06,5.37,8.775c2.142,2.106,4.57,4.495,5.893,7.452l0.596,1.319C22.205,38.72,24,43.658,24,56    c0,4.411,3.589,8,8,8s8-3.589,8-8c0-12.345,1.795-17.282,4.143-22.456l0.597-1.319c1.319-2.953,3.746-5.34,5.891-7.449    C53.392,22.061,56,19.496,56,16C56,13.15,54.715,10.665,52.496,7.336z M30,61.65V47c0-0.552,0.449-1,1-1h2c0.552,0,1,0.448,1,1    v14.65C33.373,61.872,32.702,62,32,62S30.626,61.872,30,61.65z M49.224,23.354c-2.268,2.229-4.837,4.757-6.309,8.051l-0.595,1.314    C39.957,37.929,38,43.277,38,56c0,1.771-0.775,3.36-2,4.46V47c0-1.654-1.346-3-3-3h-2c-1.654,0-3,1.346-3,3v13.46    c-1.224-1.1-2-2.688-2-4.46c0-12.72-1.957-18.068-4.319-23.277l-0.593-1.314c-1.475-3.299-4.046-5.828-6.316-8.06    C12.317,20.936,10,18.656,10,16c0-0.992,0.219-1.962,0.611-2.975l4.682,4.682C15.488,17.902,15.744,18,16,18    s0.512-0.098,0.707-0.293c0.391-0.391,0.391-1.023,0-1.414l-5-5c-0.062-0.062-0.137-0.097-0.208-0.139    c0.352-0.638,0.759-1.308,1.221-2.021l4.573,4.573C17.488,13.902,17.744,14,18,14s0.512-0.098,0.707-0.293    c0.391-0.391,0.391-1.023,0-1.414l-4.861-4.861c0.479-0.714,0.903-1.333,1.291-1.881l4.156,4.156C19.488,9.902,19.744,10,20,10    s0.512-0.098,0.707-0.293c0.391-0.391,0.391-1.023,0-1.414l-4.349-4.349C17.612,2.453,18.53,2,20,2    c3.421,0,5.387,1.214,7.122,2.285C28.611,5.205,29.896,6,32,6c2.104,0,3.39-0.795,4.878-1.715C38.612,3.214,40.579,2,44,2    c1.47,0,2.389,0.453,3.643,1.943l-4.35,4.35c-0.391,0.391-0.391,1.023,0,1.414C43.488,9.902,43.744,10,44,10    s0.512-0.098,0.707-0.293l4.156-4.156c0.388,0.547,0.812,1.167,1.291,1.881l-4.861,4.861c-0.391,0.391-0.391,1.023,0,1.414    C45.488,13.902,45.744,14,46,14s0.512-0.098,0.707-0.293l4.573-4.573c0.462,0.712,0.87,1.383,1.222,2.021    c-0.072,0.042-0.147,0.077-0.209,0.139l-5,5c-0.391,0.391-0.391,1.023,0,1.414C47.488,17.902,47.744,18,48,18    s0.512-0.098,0.707-0.293l4.682-4.682C53.78,14.038,54,15.008,54,16C54,18.657,51.682,20.937,49.224,23.354z"></path><path d="M32,12c-2.918,0-3,9.9-3,10s0.082,10,3,10c2.918,0,3-9.9,3-10S34.918,12,32,12z M32,29.387c-0.464-1.314-1-4.127-1-7.387    s0.536-6.072,1-7.387c0.464,1.314,1,4.127,1,7.387S32.464,28.072,32,29.387z"></path></g></g></svg>