<svg xmlns="http://www.w3.org/2000/svg" xmlns:xlink="http://www.w3.org/1999/xlink" xml:space="preserve" version="1.1" style="shape-rendering:geometricPrecision;text-rendering:geometricPrecision;image-rendering:optimizeQuality;" viewBox="0 0 50000 50000" x="0px" y="0px" fill-rule="evenodd" clip-rule="evenodd"><defs><style type="text/css">
   
    .str0 {stroke:black;stroke-width:564.44}
    .str1 {stroke:black;stroke-width:352.77}
    .fil0 {fill:none}
   
  </style></defs><g><g><path class="fil0 str0" d="M23049 48037c898,510 3097,510 3933,0l-40 -44330c-3,-3 -6,-5 -10,-3 -400,279 -1119,702 -1915,714 -763,12 -1364,-238 -1952,-727l-16 15 0 44331z"></path><path class="fil0 str0" d="M23049 3689c-927,-1156 -1901,735 -2533,-207 -420,-626 340,-2243 1079,-1837 992,546 1513,655 2123,658 853,4 1711,4 2564,0 610,-3 1131,-112 2123,-658 739,-406 1499,1211 1079,1837 -632,942 -1606,-949 -2533,207"></path><path class="fil0 str1" d="M21056 3857c241,-99 452,-222 727,-341l0 1478 -727 -134 0 -1003z"></path><path class="fil0 str1" d="M28882 3857c-241,-99 -452,-222 -727,-341l0 1561 727 -268 0 -952z"></path><path class="fil0 str0" d="M23049 6962c-927,-1157 -1901,735 -2533,-207 -420,-626 340,-2243 1079,-1837 626,344 1065,514 1456,594m3948 -11c379,-84 807,-254 1406,-583 739,-406 1499,1211 1079,1837 -632,942 -1606,-950 -2533,207"></path><path class="fil0 str1" d="M21056 7026c241,-99 452,-221 727,-340l0 693c4,393 -734,393 -727,0l0 -353z"></path><path class="fil0 str1" d="M28882 7026c-241,-99 -452,-221 -727,-340l0 693c-1,393 727,393 727,0l0 -353z"></path></g></g></svg>